%FSLAX25Y25*%
%MOIN*%
G70*
G01*
G75*
G04 Layer_Color=16711935*
%ADD10R,0.07874X0.07874*%
%ADD11R,0.07087X0.07087*%
%ADD12R,0.03937X0.01575*%
%ADD13R,0.03937X0.03150*%
%ADD14R,0.03150X0.03937*%
%ADD15R,0.03937X0.04724*%
%ADD16R,0.04724X0.03937*%
%ADD17R,0.05118X0.05118*%
%ADD18R,0.02362X0.00787*%
%ADD19R,0.03150X0.00787*%
%ADD20R,0.00787X0.02362*%
%ADD21R,0.00787X0.03150*%
%ADD22C,0.04724*%
%ADD23R,0.11811X0.08268*%
%ADD24R,0.05118X0.03150*%
%ADD25R,0.05118X0.03150*%
%ADD26R,0.05000X0.03600*%
%ADD27R,0.03600X0.03600*%
%ADD28R,0.03600X0.05000*%
%ADD29R,0.03600X0.03600*%
%ADD30R,0.08898X0.12402*%
%ADD31R,0.05906X0.02400*%
%ADD32R,0.05118X0.01260*%
%ADD33C,0.02756*%
%ADD34C,0.00787*%
%ADD35C,0.02362*%
%ADD36C,0.01969*%
%ADD37R,0.09252X0.06142*%
%ADD38C,0.05118*%
%ADD39R,0.05906X0.05906*%
%ADD40C,0.05906*%
%ADD41C,0.01969*%
%ADD42C,0.02756*%
%ADD43C,0.01000*%
%ADD44C,0.00600*%
%ADD45C,0.00984*%
%ADD46C,0.00500*%
%ADD47C,0.00709*%
%ADD48C,0.00591*%
%ADD49C,0.01200*%
%ADD50C,0.00492*%
%ADD51R,0.08674X0.08674*%
%ADD52R,0.07887X0.07887*%
%ADD53R,0.04737X0.02375*%
%ADD54R,0.04737X0.03950*%
%ADD55R,0.03950X0.04737*%
%ADD56R,0.04737X0.05524*%
%ADD57R,0.05524X0.04737*%
%ADD58R,0.05918X0.05918*%
%ADD59R,0.03162X0.01587*%
%ADD60R,0.03950X0.01587*%
%ADD61R,0.01587X0.03162*%
%ADD62R,0.01587X0.03950*%
%ADD63C,0.05524*%
%ADD64R,0.12611X0.09068*%
%ADD65R,0.05918X0.03950*%
%ADD66R,0.05918X0.03950*%
%ADD67R,0.05800X0.04400*%
%ADD68R,0.04400X0.04400*%
%ADD69R,0.04400X0.05800*%
%ADD70R,0.04400X0.04400*%
%ADD71R,0.09698X0.13202*%
%ADD72R,0.06706X0.03200*%
%ADD73R,0.05918X0.02060*%
%ADD74C,0.05918*%
%ADD75R,0.06706X0.06706*%
%ADD76C,0.06706*%
%ADD77C,0.02769*%
%ADD78C,0.03556*%
D43*
X294875Y-11812D02*
G03*
X294875Y-11812I-3543J0D01*
G01*
X102749D02*
G03*
X102749Y-11812I-4331J0D01*
G01*
X330118Y-8858D02*
G03*
X348425Y-27165I18307J0D01*
G01*
X44094Y-78347D02*
G03*
X25787Y-96654I0J-18307D01*
G01*
Y-3347D02*
G03*
X62402Y-3347I18307J0D01*
G01*
X377166Y-86098D02*
Y13598D01*
X0Y1500D02*
Y13598D01*
X208077Y12598D02*
X377166D01*
X0D02*
X165889D01*
X371166Y14598D02*
X377166Y12598D01*
X371166Y10598D02*
X377166Y12598D01*
X0D02*
X6000Y10598D01*
X0Y12598D02*
X6000Y14598D01*
X358980Y-101181D02*
X392339D01*
X331618Y0D02*
X392339D01*
X391339Y-101181D02*
Y-73284D01*
Y-31097D02*
Y0D01*
Y-101181D02*
X393339Y-95181D01*
X389339D02*
X391339Y-101181D01*
X389339Y-6000D02*
X391339Y0D01*
X393339Y-6000D01*
X330118Y-8858D02*
Y0D01*
X377166Y-87599D02*
Y-44291D01*
X62402Y-3347D02*
Y0D01*
X365354Y-44291D02*
Y-27165D01*
X357481Y-101181D02*
Y-87599D01*
X331102Y-98425D02*
Y-44291D01*
X0Y0D02*
X25787D01*
X62402D02*
X330118D01*
X348425Y-27165D02*
X365354D01*
X61811Y-44291D02*
X331102D01*
X365354D02*
X377166D01*
X332284Y-98425D02*
X341733Y-101181D01*
X44094Y-78347D02*
X61811D01*
X357481Y-87599D02*
X377166D01*
X331102Y-98425D02*
X332284D01*
X0D02*
X25787D01*
X341733Y-101181D02*
X357481D01*
X61811Y-78347D02*
Y-44291D01*
X25787Y-98425D02*
Y-96654D01*
Y-3347D02*
Y0D01*
X0Y-39370D02*
Y-27559D01*
Y-98425D02*
Y0D01*
D44*
X167489Y9999D02*
X168489Y8999D01*
X170488D01*
X171488Y9999D01*
Y13998D01*
X170488Y14998D01*
X168489D01*
X167489Y13998D01*
Y12998D01*
X168489Y11998D01*
X171488D01*
X177486Y14998D02*
X173487D01*
Y11998D01*
X175487Y12998D01*
X176486D01*
X177486Y11998D01*
Y9999D01*
X176486Y8999D01*
X174487D01*
X173487Y9999D01*
X179485Y8999D02*
Y9999D01*
X180485D01*
Y8999D01*
X179485D01*
X184484Y13998D02*
X185483Y14998D01*
X187483D01*
X188482Y13998D01*
Y12998D01*
X187483Y11998D01*
X188482Y10999D01*
Y9999D01*
X187483Y8999D01*
X185483D01*
X184484Y9999D01*
Y10999D01*
X185483Y11998D01*
X184484Y12998D01*
Y13998D01*
X185483Y11998D02*
X187483D01*
X190482Y13998D02*
X191481Y14998D01*
X193481D01*
X194480Y13998D01*
Y9999D01*
X193481Y8999D01*
X191481D01*
X190482Y9999D01*
Y13998D01*
X196480Y8999D02*
Y12998D01*
X197479D01*
X198479Y11998D01*
Y8999D01*
Y11998D01*
X199479Y12998D01*
X200478Y11998D01*
Y8999D01*
X202478D02*
Y12998D01*
X203477D01*
X204477Y11998D01*
Y8999D01*
Y11998D01*
X205477Y12998D01*
X206476Y11998D01*
Y8999D01*
X394938Y-67686D02*
Y-71684D01*
X390939Y-67686D01*
X389939D01*
X388940Y-68685D01*
Y-70685D01*
X389939Y-71684D01*
X388940Y-61687D02*
Y-65686D01*
X391939D01*
X390939Y-63687D01*
Y-62687D01*
X391939Y-61687D01*
X393938D01*
X394938Y-62687D01*
Y-64687D01*
X393938Y-65686D01*
X394938Y-59688D02*
X393938D01*
Y-58688D01*
X394938D01*
Y-59688D01*
X388940Y-54690D02*
Y-50691D01*
X389939D01*
X393938Y-54690D01*
X394938D01*
X389939Y-48692D02*
X388940Y-47692D01*
Y-45693D01*
X389939Y-44693D01*
X393938D01*
X394938Y-45693D01*
Y-47692D01*
X393938Y-48692D01*
X389939D01*
X394938Y-42694D02*
X390939D01*
Y-41694D01*
X391939Y-40694D01*
X394938D01*
X391939D01*
X390939Y-39695D01*
X391939Y-38695D01*
X394938D01*
Y-36696D02*
X390939D01*
Y-35696D01*
X391939Y-34696D01*
X394938D01*
X391939D01*
X390939Y-33697D01*
X391939Y-32697D01*
X394938D01*
M02*
