%FSLAX25Y25*%
%MOIN*%
G70*
G01*
G75*
%ADD10R,0.07874X0.07874*%
%ADD11R,0.07087X0.07087*%
%ADD12R,0.03937X0.01575*%
%ADD13R,0.03937X0.03150*%
%ADD14R,0.03150X0.03937*%
%ADD15R,0.03937X0.04724*%
%ADD16R,0.04724X0.03937*%
%ADD17R,0.05118X0.05118*%
%ADD18R,0.02362X0.00787*%
%ADD19R,0.03150X0.00787*%
%ADD20R,0.00787X0.02362*%
%ADD21R,0.00787X0.03150*%
%ADD22C,0.04724*%
%ADD23R,0.11811X0.08268*%
%ADD24R,0.05118X0.03150*%
%ADD25R,0.05118X0.03150*%
%ADD26R,0.05000X0.03600*%
%ADD27R,0.03600X0.03600*%
%ADD28R,0.03600X0.05000*%
%ADD29R,0.03600X0.03600*%
%ADD30R,0.08898X0.12402*%
%ADD31R,0.05906X0.02400*%
%ADD32R,0.05118X0.01260*%
%ADD33C,0.02756*%
%ADD34C,0.00787*%
%ADD35C,0.02362*%
%ADD36C,0.01969*%
%ADD37R,0.09252X0.06142*%
%ADD38C,0.05118*%
%ADD39R,0.05906X0.05906*%
%ADD40C,0.05906*%
%ADD41C,0.01969*%
%ADD42C,0.02756*%
%ADD43C,0.01000*%
%ADD44C,0.00600*%
%ADD45C,0.00984*%
%ADD46C,0.00500*%
%ADD47C,0.00709*%
%ADD48C,0.00591*%
%ADD49C,0.01200*%
%ADD50C,0.00492*%
D34*
X309518Y-15692D02*
G03*
X309518Y-15692I-394J0D01*
G01*
X254337Y-24962D02*
G03*
X249395Y-24962I-2471J-3706D01*
G01*
Y-35199D02*
G03*
X254337Y-35199I2471J3706D01*
G01*
X274254Y-22099D02*
G03*
X274254Y-27041I3706J-2471D01*
G01*
X284491D02*
G03*
X284491Y-22099I-3706J2471D01*
G01*
X274143Y-29910D02*
G03*
X274304Y-36147I5097J-2989D01*
G01*
X285728Y-36051D02*
G03*
X285751Y-29914I-5038J3087D01*
G01*
X254433Y-5622D02*
G03*
X248196Y-5784I-2989J-5097D01*
G01*
X248292Y-17207D02*
G03*
X254429Y-17230I3087J5038D01*
G01*
X262450Y-6912D02*
G03*
X257508Y-6912I-2471J-3706D01*
G01*
Y-17148D02*
G03*
X262450Y-17148I2471J3706D01*
G01*
X70496Y-19866D02*
G03*
X70657Y-26103I5097J-2989D01*
G01*
X82081Y-26007D02*
G03*
X82103Y-19870I-5038J3087D01*
G01*
X71792Y-29490D02*
G03*
X71792Y-34432I3706J-2471D01*
G01*
X82029D02*
G03*
X82029Y-29490I-3706J2471D01*
G01*
X198458Y-15284D02*
G03*
X198297Y-9047I-5097J2989D01*
G01*
X186873Y-9144D02*
G03*
X186851Y-15280I5038J-3087D01*
G01*
X209347Y-39934D02*
G03*
X209186Y-33697I-5097J2989D01*
G01*
X197763Y-33794D02*
G03*
X197740Y-39930I5038J-3087D01*
G01*
X177520Y-17992D02*
G03*
X177520Y-17992I-394J0D01*
G01*
X139395Y-16136D02*
G03*
X139395Y-16136I-394J0D01*
G01*
X315493Y-41137D02*
G03*
X309489Y-41137I-3002J-3002D01*
G01*
X324474Y-26344D02*
G03*
X329415Y-26344I2471J3706D01*
G01*
Y-16108D02*
G03*
X324474Y-16108I-2471J-3706D01*
G01*
X339124Y-40728D02*
Y-29704D01*
X333612D02*
X339124D01*
X333612Y-40728D02*
Y-29704D01*
Y-40728D02*
X339124D01*
X249395Y-28899D02*
Y-24962D01*
X254337Y-28899D02*
Y-24962D01*
X249395Y-35199D02*
Y-31262D01*
X254337Y-35199D02*
Y-31262D01*
X262252Y-35392D02*
Y-24369D01*
X256740D02*
X262252D01*
X256740Y-35392D02*
Y-24369D01*
Y-35392D02*
X262252D01*
X270000Y-35394D02*
Y-24370D01*
X264488D02*
X270000D01*
X264488Y-35394D02*
Y-24370D01*
Y-35394D02*
X270000D01*
X274254Y-27041D02*
X278191D01*
X274254Y-22099D02*
X278191D01*
X280554Y-27041D02*
X284491D01*
X280554Y-22099D02*
X284491D01*
X257508Y-10849D02*
Y-6912D01*
X262450Y-10849D02*
Y-6912D01*
X257508Y-17148D02*
Y-13211D01*
X262450Y-17148D02*
Y-13211D01*
X71792Y-34432D02*
X75729D01*
X71792Y-29490D02*
X75729D01*
X78092Y-34432D02*
X82029D01*
X78092Y-29490D02*
X82029D01*
X186806Y-29495D02*
Y-18471D01*
Y-29495D02*
X192317D01*
Y-18471D01*
X186806D02*
X192317D01*
X194426Y-29495D02*
Y-18471D01*
Y-29495D02*
X199937D01*
Y-18471D01*
X194426D02*
X199937D01*
X59912Y-35783D02*
X66644D01*
Y-22791D01*
X59912D02*
X66644D01*
X59912Y-35783D02*
Y-22791D01*
X100884Y-33072D02*
Y-22048D01*
Y-33072D02*
X106396D01*
Y-22048D01*
X100884D02*
X106396D01*
X110299Y-17027D02*
Y-6004D01*
Y-17027D02*
X115811D01*
Y-6004D01*
X110299D02*
X115811D01*
X118349Y-17107D02*
Y-6084D01*
Y-17107D02*
X123861D01*
Y-6084D01*
X118349D02*
X123861D01*
X131751Y-28182D02*
Y-17158D01*
X126239D02*
X131751D01*
X126239Y-28182D02*
Y-17158D01*
Y-28182D02*
X131751D01*
X135115Y-30224D02*
X146138D01*
X135115Y-35736D02*
Y-30224D01*
Y-35736D02*
X146138D01*
Y-30224D01*
X242016Y-30492D02*
Y-19468D01*
X236504D02*
X242016D01*
X236504Y-30492D02*
Y-19468D01*
Y-30492D02*
X242016D01*
X292148Y-22154D02*
X303172D01*
X292148Y-27666D02*
Y-22154D01*
Y-27666D02*
X303172D01*
Y-22154D01*
X320554Y-41137D02*
Y-31018D01*
X304806Y-41137D02*
Y-31018D01*
X320554D01*
X315493Y-41137D02*
X320554D01*
X304806D02*
X309489D01*
X351296Y-43354D02*
X362320D01*
X351296Y-48866D02*
Y-43354D01*
Y-48866D02*
X362320D01*
Y-43354D01*
X347479Y-40728D02*
Y-29704D01*
X341968D02*
X347479D01*
X341968Y-40728D02*
Y-29704D01*
Y-40728D02*
X347479D01*
X346936Y-99522D02*
Y-88498D01*
X341424D02*
X346936D01*
X341424Y-99522D02*
Y-88498D01*
Y-99522D02*
X346936D01*
X349197Y-99555D02*
Y-88571D01*
Y-99555D02*
X354709D01*
Y-88571D01*
X349197Y-87902D02*
X354079D01*
X349197Y-88571D02*
X354709D01*
X354079Y-87902D02*
X354669D01*
X354709Y-87941D01*
Y-88571D02*
Y-87941D01*
X349197Y-90107D02*
Y-87902D01*
X329415Y-26344D02*
Y-22407D01*
X324474Y-26344D02*
Y-22407D01*
X329415Y-20045D02*
Y-16108D01*
X324474Y-20045D02*
Y-16108D01*
X304950Y-11610D02*
Y-1610D01*
X324950D01*
Y-11610D02*
Y-1610D01*
X304950Y-11610D02*
X324950D01*
X65510Y-12230D02*
Y-2230D01*
X85510D01*
Y-12230D02*
Y-2230D01*
X65510Y-12230D02*
X85510D01*
D43*
X350984Y-97244D02*
G03*
X350984Y-89370I0J3937D01*
G01*
X300190Y-11812D02*
G03*
X300190Y-11812I-8858J0D01*
G01*
X107276D02*
G03*
X107276Y-11812I-8858J0D01*
G01*
X19685Y-90551D02*
G03*
X21654Y-88583I0J1969D01*
G01*
X15354Y-80709D02*
G03*
X15354Y-80709I-3937J0D01*
G01*
X21654Y-72835D02*
G03*
X19685Y-70866I-1969J0D01*
G01*
X15354Y-49213D02*
G03*
X15354Y-49213I-3937J0D01*
G01*
X19685Y-59055D02*
G03*
X21654Y-57087I0J1969D01*
G01*
Y-41339D02*
G03*
X19685Y-39370I-1969J0D01*
G01*
Y-27559D02*
G03*
X21654Y-25591I0J1969D01*
G01*
Y-9843D02*
G03*
X19685Y-7874I-1969J0D01*
G01*
X15354Y-17717D02*
G03*
X15354Y-17717I-3937J0D01*
G01*
X49803Y-52106D02*
Y-51634D01*
Y-52106D02*
X50295Y-52500D01*
X49803Y-51634D02*
X50295Y-51240D01*
X47441Y-52106D02*
Y-51634D01*
X47146Y-52500D02*
X47441Y-52106D01*
X47146Y-51240D02*
X47441Y-51634D01*
X47146Y-52500D02*
Y-51240D01*
X50295Y-52500D02*
Y-51240D01*
X47146Y-52500D02*
X50295D01*
X47441Y-52106D02*
X49803D01*
X47146Y-51240D02*
X50295D01*
X47441Y-51634D02*
X49803D01*
Y-57028D02*
Y-56555D01*
Y-57028D02*
X50295Y-57421D01*
X47441Y-57028D02*
Y-56555D01*
Y-57028D02*
X49803D01*
Y-56555D02*
X50295Y-56161D01*
X47146Y-57421D02*
X47441Y-57028D01*
X47146Y-56161D02*
X47441Y-56555D01*
X47146Y-57421D02*
Y-56161D01*
X50295Y-57421D02*
Y-56161D01*
X47441Y-56555D02*
X49803D01*
X47146Y-57421D02*
X50295D01*
X47146Y-56161D02*
X50295D01*
X52362Y-69390D02*
X53150Y-68602D01*
X44488D02*
X45276Y-69390D01*
X52362D01*
X42126Y-68602D02*
X53150D01*
X39764Y-58957D02*
X42126D01*
X40945Y-60335D02*
Y-58957D01*
X51575Y-60335D02*
X52756Y-61516D01*
X48425Y-60335D02*
X51575D01*
X45472Y-61516D02*
Y-60335D01*
X40945D02*
X45472D01*
X48425Y-61516D02*
Y-60335D01*
X42126Y-63484D02*
X53150D01*
X42126Y-68602D02*
Y-58957D01*
Y-61516D02*
X52756D01*
X39764Y-62697D02*
Y-58957D01*
X38583Y-62697D02*
X53150D01*
X52756Y-61516D02*
Y-55118D01*
X51575D02*
X53150D01*
X51575Y-53543D02*
X53150D01*
X49803Y-46713D02*
X50295Y-46319D01*
X49803Y-47185D02*
Y-46713D01*
Y-47185D02*
X50295Y-47579D01*
X47441Y-46713D02*
X49803D01*
X47441Y-47185D02*
Y-46713D01*
X47146Y-47579D02*
Y-46319D01*
X50295D01*
Y-47579D02*
Y-46319D01*
X47146Y-47579D02*
X50295D01*
X47441Y-47185D02*
X49803D01*
X47146Y-47579D02*
X47441Y-47185D01*
X47146Y-46319D02*
X47441Y-46713D01*
X49803Y-42264D02*
Y-41791D01*
X50295Y-41398D01*
X47441Y-42264D02*
Y-41791D01*
X49803Y-42264D02*
X50295Y-42658D01*
X47146D02*
X47441Y-42264D01*
X49803D01*
X47146Y-42658D02*
Y-41398D01*
X47441Y-41791D02*
X49803D01*
X50295Y-42658D02*
Y-41398D01*
X47146D02*
X47441Y-41791D01*
X47146Y-42658D02*
X50295D01*
X47146Y-41398D02*
X50295D01*
X51575Y-45276D02*
X53150D01*
X52756Y-53543D02*
Y-45276D01*
X51575Y-43701D02*
X53150D01*
X51575Y-60335D02*
Y-38484D01*
X52756Y-37303D01*
Y-43701D02*
Y-37303D01*
X48425Y-38484D02*
Y-37303D01*
Y-38484D02*
X51575D01*
X45472D02*
Y-37303D01*
X39764Y-39862D02*
X42126D01*
X40945D02*
Y-38484D01*
X45472D01*
X39764Y-39862D02*
Y-36122D01*
X42126Y-37303D02*
X52756D01*
X52362Y-29429D02*
X53150Y-30217D01*
X44488D02*
X45276Y-29429D01*
X52362D01*
X42126Y-30217D02*
X53150D01*
X42126Y-35335D02*
X53150D01*
X42126Y-39862D02*
Y-30217D01*
X38583Y-36122D02*
X53150D01*
X36614Y-57421D02*
Y-56161D01*
X37008Y-57421D02*
Y-56161D01*
X36614Y-57421D02*
X38583D01*
X36614Y-56161D02*
X38583D01*
X36614Y-52500D02*
X38583D01*
X36614D02*
Y-51240D01*
X37008Y-52500D02*
Y-51240D01*
X36614D02*
X38583D01*
X36614Y-42658D02*
Y-41398D01*
X37008Y-42658D02*
Y-41398D01*
X36614Y-42658D02*
X38583D01*
X36614Y-41398D02*
X38583D01*
X36614Y-47579D02*
Y-46319D01*
X37008Y-47579D02*
Y-46319D01*
X36614Y-47579D02*
X38583D01*
X53150Y-68602D02*
Y-30217D01*
X38583Y-62697D02*
Y-36122D01*
X36614Y-46319D02*
X38583D01*
X349016Y-99606D02*
X350984D01*
X349016Y-98622D02*
X350984D01*
Y-99606D02*
Y-97244D01*
X349016Y-87992D02*
X350984D01*
Y-89370D02*
Y-87008D01*
X349016D02*
X350984D01*
X349016Y-99606D02*
Y-87008D01*
X360433Y-51378D02*
X368307D01*
Y-58465D02*
Y-51378D01*
X360433Y-58465D02*
Y-51378D01*
X340748D02*
X348622D01*
Y-58465D02*
Y-51378D01*
X340748Y-59252D02*
X342717D01*
X340748D02*
Y-51378D01*
X337205Y-62402D02*
X342717D01*
X339173Y-63976D02*
X342717D01*
X339173Y-67913D02*
Y-63976D01*
X337205Y-69488D02*
Y-62402D01*
Y-69488D02*
X342717D01*
X339173Y-67913D02*
X342717D01*
X360433Y-86024D02*
X368307D01*
Y-78937D01*
X360433Y-86024D02*
Y-78937D01*
X340748Y-78150D02*
X342717D01*
X340748Y-86024D02*
X348622D01*
Y-78937D01*
X340748Y-86024D02*
Y-78150D01*
X366339Y-81142D02*
Y-78937D01*
X362402Y-81142D02*
Y-78937D01*
Y-81142D02*
X366339D01*
X346654D02*
Y-78937D01*
X342717Y-81142D02*
X346654D01*
X366339Y-58465D02*
Y-56260D01*
X362402D02*
X366339D01*
X362402Y-58465D02*
Y-56260D01*
X346654Y-58465D02*
Y-56260D01*
X342717D02*
X346654D01*
X371457Y-78937D02*
Y-69601D01*
Y-62289D02*
Y-58465D01*
X342717Y-81142D02*
Y-56260D01*
Y-78937D02*
X371457D01*
X342717Y-58465D02*
X371457D01*
X-5906Y-72835D02*
X-4724D01*
X-5906Y-88583D02*
X-4724D01*
X-5906Y-90551D02*
Y-70866D01*
X-4724Y-90551D02*
Y-70866D01*
X-787Y-90551D02*
Y-70866D01*
X3937Y-92520D02*
Y-90551D01*
X-5906D02*
X19685D01*
X3937Y-92520D02*
X28422D01*
X3937Y-70866D02*
Y-68898D01*
X21654Y-88583D02*
Y-72835D01*
X-5906Y-70866D02*
X19685D01*
X28422Y-92520D02*
Y-68898D01*
X3937D02*
X28422D01*
X-5906Y-57087D02*
X-4724D01*
X-5906Y-59055D02*
Y-39370D01*
Y-41339D02*
X-4724D01*
Y-59055D02*
Y-39370D01*
X-787Y-59055D02*
Y-39370D01*
X-5906Y-59055D02*
X19685D01*
X21654Y-57087D02*
Y-41339D01*
X-5906Y-39370D02*
X19685D01*
X3937D02*
Y-37402D01*
Y-61024D02*
Y-59055D01*
Y-61024D02*
X28422D01*
Y-37402D01*
X3937D02*
X28422D01*
X3937Y-7874D02*
Y-5906D01*
Y-29528D02*
Y-27559D01*
X-5906Y-25591D02*
X-4724D01*
X-5906Y-9843D02*
X-4724D01*
X-5906Y-27559D02*
Y-7874D01*
X-4724Y-27559D02*
Y-7874D01*
X-787Y-27559D02*
Y-7874D01*
X-5906Y-27559D02*
X19685D01*
X-5906Y-7874D02*
X19685D01*
X21654Y-25591D02*
Y-9843D01*
X3937Y-29528D02*
X28422D01*
Y-5906D01*
X3937D02*
X28422D01*
X371457Y-62289D02*
X377362D01*
X371457Y-69601D02*
X377362D01*
X371457Y-73228D02*
X377362D01*
X371457Y-58662D02*
X377362D01*
Y-73228D02*
Y-58662D01*
X337699Y-48034D02*
Y-42036D01*
X340698D01*
X341697Y-43035D01*
Y-45035D01*
X340698Y-46034D01*
X337699D01*
X347695Y-48034D02*
X343697D01*
X347695Y-44035D01*
Y-43035D01*
X346696Y-42036D01*
X344696D01*
X343697Y-43035D01*
D44*
X175394Y-19882D02*
G03*
X175394Y-19882I-394J0D01*
G01*
D45*
X228474Y-31260D02*
G03*
X228474Y-31260I-492J0D01*
G01*
D46*
X220951Y-29106D02*
G03*
X216451Y-29106I-2250J-248D01*
G01*
D47*
X310475Y-27294D02*
X316774D01*
Y-15877D01*
X310475Y-27294D02*
Y-15877D01*
X316774D01*
X274201Y-29878D02*
X278573D01*
X281329D02*
X285751D01*
X281379Y-36151D02*
X285701D01*
X274301Y-36128D02*
X278673D01*
X254465Y-10052D02*
Y-5680D01*
Y-17230D02*
Y-12808D01*
X248193Y-17180D02*
Y-12858D01*
X248215Y-10152D02*
Y-5780D01*
X70553Y-19834D02*
X74925D01*
X77681D02*
X82103D01*
X77731Y-26107D02*
X82053D01*
X70653Y-26084D02*
X75025D01*
X194029Y-15316D02*
X198401D01*
X186851D02*
X191273D01*
X186901Y-9044D02*
X191223D01*
X193929Y-9066D02*
X198301D01*
X204918Y-39966D02*
X209290D01*
X197740D02*
X202162D01*
X197790Y-33694D02*
X202112D01*
X204818Y-33716D02*
X209190D01*
X140351Y-27739D02*
X146651D01*
Y-16321D01*
X140351Y-27739D02*
Y-16321D01*
X146651D01*
D48*
X164213Y-18858D02*
X165866D01*
X164213Y-20512D02*
Y-18858D01*
Y-30669D02*
X165866D01*
X164213D02*
Y-29016D01*
X174370Y-30669D02*
X176024D01*
Y-29016D01*
Y-20512D02*
Y-18858D01*
X174331D02*
X176024D01*
X211451Y-9606D02*
X225951D01*
X211451Y-29606D02*
Y-9606D01*
Y-29606D02*
X216451D01*
X220951D02*
X225951D01*
Y-9606D01*
X351953Y-92863D02*
X351953D01*
X353646Y-94555D01*
X350221D02*
X353646D01*
X350221D02*
X351913Y-92863D01*
X162799Y-11185D02*
Y-13809D01*
X163323Y-14334D01*
X164373D01*
X164898Y-13809D01*
Y-11185D01*
X168046D02*
X166997Y-11710D01*
X165947Y-12760D01*
Y-13809D01*
X166472Y-14334D01*
X167522D01*
X168046Y-13809D01*
Y-13284D01*
X167522Y-12760D01*
X165947D01*
X140354Y-11576D02*
Y-14200D01*
X140879Y-14724D01*
X141929D01*
X142453Y-14200D01*
Y-11576D01*
X145602D02*
X143503D01*
Y-13150D01*
X144552Y-12625D01*
X145077D01*
X145602Y-13150D01*
Y-14200D01*
X145077Y-14724D01*
X144028D01*
X143503Y-14200D01*
X225512Y-34133D02*
Y-31509D01*
X224987Y-30984D01*
X223938D01*
X223413Y-31509D01*
Y-34133D01*
X220789Y-30984D02*
Y-34133D01*
X222363Y-32559D01*
X220264D01*
X332638Y-43109D02*
Y-40485D01*
X332113Y-39961D01*
X331064D01*
X330539Y-40485D01*
Y-43109D01*
X329489Y-42584D02*
X328964Y-43109D01*
X327915D01*
X327390Y-42584D01*
Y-42060D01*
X327915Y-41535D01*
X328440D01*
X327915D01*
X327390Y-41010D01*
Y-40485D01*
X327915Y-39961D01*
X328964D01*
X329489Y-40485D01*
X281967Y-2874D02*
X279344D01*
X278819Y-3399D01*
Y-4448D01*
X279344Y-4973D01*
X281967D01*
X278819Y-8122D02*
Y-6023D01*
X280918Y-8122D01*
X281443D01*
X281967Y-7597D01*
Y-6547D01*
X281443Y-6023D01*
X303110Y-12718D02*
Y-15341D01*
X303635Y-15866D01*
X304684D01*
X305209Y-15341D01*
Y-12718D01*
X306259Y-15866D02*
X307308D01*
X306784D01*
Y-12718D01*
X306259Y-13242D01*
X339803Y-96732D02*
X336655D01*
Y-95158D01*
X337179Y-94633D01*
X338229D01*
X338754Y-95158D01*
Y-96732D01*
Y-95683D02*
X339803Y-94633D01*
Y-91485D02*
Y-93584D01*
X337704Y-91485D01*
X337179D01*
X336655Y-92009D01*
Y-93059D01*
X337179Y-93584D01*
X339803Y-90435D02*
Y-89386D01*
Y-89910D01*
X336655D01*
X337179Y-90435D01*
X337677Y-50039D02*
X334529D01*
Y-48465D01*
X335053Y-47940D01*
X336103D01*
X336628Y-48465D01*
Y-50039D01*
Y-48990D02*
X337677Y-47940D01*
Y-44792D02*
Y-46891D01*
X335578Y-44792D01*
X335053D01*
X334529Y-45316D01*
Y-46366D01*
X335053Y-46891D01*
Y-43742D02*
X334529Y-43217D01*
Y-42168D01*
X335053Y-41643D01*
X337152D01*
X337677Y-42168D01*
Y-43217D01*
X337152Y-43742D01*
X335053D01*
X346260Y-49370D02*
X343111D01*
Y-47796D01*
X343636Y-47271D01*
X344686D01*
X345210Y-47796D01*
Y-49370D01*
Y-48320D02*
X346260Y-47271D01*
Y-46222D02*
Y-45172D01*
Y-45697D01*
X343111D01*
X343636Y-46222D01*
X345735Y-43598D02*
X346260Y-43073D01*
Y-42023D01*
X345735Y-41499D01*
X343636D01*
X343111Y-42023D01*
Y-43073D01*
X343636Y-43598D01*
X344161D01*
X344686Y-43073D01*
Y-41499D01*
X363268Y-48622D02*
Y-45474D01*
X364842D01*
X365367Y-45998D01*
Y-47048D01*
X364842Y-47572D01*
X363268D01*
X364317D02*
X365367Y-48622D01*
X366416D02*
X367466D01*
X366941D01*
Y-45474D01*
X366416Y-45998D01*
X371139Y-45474D02*
X370090Y-45998D01*
X369040Y-47048D01*
Y-48097D01*
X369565Y-48622D01*
X370614D01*
X371139Y-48097D01*
Y-47572D01*
X370614Y-47048D01*
X369040D01*
X136969Y-40394D02*
Y-37245D01*
X138543D01*
X139068Y-37770D01*
Y-38819D01*
X138543Y-39344D01*
X136969D01*
X138018D02*
X139068Y-40394D01*
X140117D02*
X141167D01*
X140642D01*
Y-37245D01*
X140117Y-37770D01*
X142741D02*
X143266Y-37245D01*
X144315D01*
X144840Y-37770D01*
Y-38295D01*
X144315Y-38819D01*
X143790D01*
X144315D01*
X144840Y-39344D01*
Y-39869D01*
X144315Y-40394D01*
X143266D01*
X142741Y-39869D01*
X130591Y-15748D02*
X127442D01*
Y-14174D01*
X127967Y-13649D01*
X129016D01*
X129541Y-14174D01*
Y-15748D01*
Y-14698D02*
X130591Y-13649D01*
Y-12599D02*
Y-11550D01*
Y-12075D01*
X127442D01*
X127967Y-12599D01*
X130591Y-7877D02*
Y-9976D01*
X128491Y-7877D01*
X127967D01*
X127442Y-8401D01*
Y-9451D01*
X127967Y-9976D01*
X240622Y-18302D02*
X237473D01*
Y-16728D01*
X237998Y-16203D01*
X239047D01*
X239572Y-16728D01*
Y-18302D01*
Y-17252D02*
X240622Y-16203D01*
Y-15153D02*
Y-14104D01*
Y-14628D01*
X237473D01*
X237998Y-15153D01*
X240622Y-12529D02*
Y-11480D01*
Y-12005D01*
X237473D01*
X237998Y-12529D01*
X190905Y-38701D02*
X187757D01*
Y-37126D01*
X188282Y-36602D01*
X189331D01*
X189856Y-37126D01*
Y-38701D01*
Y-37651D02*
X190905Y-36602D01*
Y-35552D02*
Y-34503D01*
Y-35027D01*
X187757D01*
X188282Y-35552D01*
Y-32928D02*
X187757Y-32404D01*
Y-31354D01*
X188282Y-30829D01*
X190381D01*
X190905Y-31354D01*
Y-32404D01*
X190381Y-32928D01*
X188282D01*
X196496Y-36220D02*
X193348D01*
Y-34646D01*
X193872Y-34121D01*
X194922D01*
X195447Y-34646D01*
Y-36220D01*
Y-35171D02*
X196496Y-34121D01*
X195971Y-33072D02*
X196496Y-32547D01*
Y-31498D01*
X195971Y-30973D01*
X193872D01*
X193348Y-31498D01*
Y-32547D01*
X193872Y-33072D01*
X194397D01*
X194922Y-32547D01*
Y-30973D01*
X60315Y-21732D02*
Y-18584D01*
X61889D01*
X62414Y-19108D01*
Y-20158D01*
X61889Y-20683D01*
X60315D01*
X61365D02*
X62414Y-21732D01*
X63463Y-19108D02*
X63988Y-18584D01*
X65038D01*
X65563Y-19108D01*
Y-19633D01*
X65038Y-20158D01*
X65563Y-20683D01*
Y-21207D01*
X65038Y-21732D01*
X63988D01*
X63463Y-21207D01*
Y-20683D01*
X63988Y-20158D01*
X63463Y-19633D01*
Y-19108D01*
X63988Y-20158D02*
X65038D01*
X110472Y-4961D02*
Y-1812D01*
X112047D01*
X112572Y-2337D01*
Y-3386D01*
X112047Y-3911D01*
X110472D01*
X111522D02*
X112572Y-4961D01*
X113621Y-1812D02*
X115720D01*
Y-2337D01*
X113621Y-4436D01*
Y-4961D01*
X298228Y-21299D02*
Y-18151D01*
X299803D01*
X300327Y-18675D01*
Y-19725D01*
X299803Y-20250D01*
X298228D01*
X299278D02*
X300327Y-21299D01*
X303476Y-18151D02*
X301377D01*
Y-19725D01*
X302427Y-19200D01*
X302951D01*
X303476Y-19725D01*
Y-20774D01*
X302951Y-21299D01*
X301902D01*
X301377Y-20774D01*
X118780Y-5000D02*
Y-1851D01*
X120354D01*
X120879Y-2376D01*
Y-3426D01*
X120354Y-3951D01*
X118780D01*
X119829D02*
X120879Y-5000D01*
X123502D02*
Y-1851D01*
X121928Y-3426D01*
X124027D01*
X261102Y-41772D02*
X257954D01*
Y-40197D01*
X258478Y-39673D01*
X259528D01*
X260053Y-40197D01*
Y-41772D01*
Y-40722D02*
X261102Y-39673D01*
X258478Y-38623D02*
X257954Y-38098D01*
Y-37049D01*
X258478Y-36524D01*
X259003D01*
X259528Y-37049D01*
Y-37574D01*
Y-37049D01*
X260053Y-36524D01*
X260578D01*
X261102Y-37049D01*
Y-38098D01*
X260578Y-38623D01*
X268701Y-41535D02*
X265552D01*
Y-39961D01*
X266077Y-39436D01*
X267126D01*
X267651Y-39961D01*
Y-41535D01*
Y-40486D02*
X268701Y-39436D01*
Y-36288D02*
Y-38387D01*
X266602Y-36288D01*
X266077D01*
X265552Y-36812D01*
Y-37862D01*
X266077Y-38387D01*
X104882Y-38740D02*
X101733D01*
Y-37166D01*
X102258Y-36641D01*
X103308D01*
X103832Y-37166D01*
Y-38740D01*
Y-37691D02*
X104882Y-36641D01*
Y-35592D02*
Y-34542D01*
Y-35067D01*
X101733D01*
X102258Y-35592D01*
X361745Y-30091D02*
X363844D01*
X364369Y-29566D01*
Y-28517D01*
X363844Y-27992D01*
X361745D01*
X361221Y-28517D01*
Y-29566D01*
X362270Y-29042D02*
X361221Y-30091D01*
Y-29566D02*
X361745Y-30091D01*
X363844Y-31141D02*
X364369Y-31666D01*
Y-32715D01*
X363844Y-33240D01*
X363319D01*
X362795Y-32715D01*
Y-32190D01*
Y-32715D01*
X362270Y-33240D01*
X361745D01*
X361221Y-32715D01*
Y-31666D01*
X361745Y-31141D01*
X121051Y-34934D02*
Y-37033D01*
X121575Y-37558D01*
X122625D01*
X123150Y-37033D01*
Y-34934D01*
X122625Y-34409D01*
X121575D01*
X122100Y-35459D02*
X121051Y-34409D01*
X121575D02*
X121051Y-34934D01*
X117902Y-34409D02*
X120001D01*
X117902Y-36509D01*
Y-37033D01*
X118427Y-37558D01*
X119476D01*
X120001Y-37033D01*
X90564Y-37729D02*
X92663D01*
X93188Y-37204D01*
Y-36155D01*
X92663Y-35630D01*
X90564D01*
X90039Y-36155D01*
Y-37204D01*
X91089Y-36680D02*
X90039Y-37729D01*
Y-37204D02*
X90564Y-37729D01*
X90039Y-38778D02*
Y-39828D01*
Y-39303D01*
X93188D01*
X92663Y-38778D01*
X38780Y-32677D02*
X35631D01*
Y-31103D01*
X36156Y-30578D01*
X37205D01*
X37730Y-31103D01*
Y-32677D01*
X38780Y-27954D02*
X35631D01*
X37205Y-29529D01*
Y-27430D01*
X65866Y-16142D02*
Y-12993D01*
X67440D01*
X67965Y-13518D01*
Y-14567D01*
X67440Y-15092D01*
X65866D01*
X69015Y-13518D02*
X69539Y-12993D01*
X70589D01*
X71114Y-13518D01*
Y-14043D01*
X70589Y-14567D01*
X70064D01*
X70589D01*
X71114Y-15092D01*
Y-15617D01*
X70589Y-16142D01*
X69539D01*
X69015Y-15617D01*
X299882Y-5354D02*
Y-2206D01*
X301456D01*
X301981Y-2730D01*
Y-3780D01*
X301456Y-4305D01*
X299882D01*
X303030Y-5354D02*
X304080D01*
X303555D01*
Y-2206D01*
X303030Y-2730D01*
X350434Y-86772D02*
X353583D01*
Y-85197D01*
X353058Y-84673D01*
X350959D01*
X350434Y-85197D01*
Y-86772D01*
X353583Y-83623D02*
Y-82573D01*
Y-83098D01*
X350434D01*
X350959Y-83623D01*
X179343Y-11234D02*
X178818Y-10710D01*
X177769D01*
X177244Y-11234D01*
Y-13333D01*
X177769Y-13858D01*
X178818D01*
X179343Y-13333D01*
X180393Y-13858D02*
X181442D01*
X180918D01*
Y-10710D01*
X180393Y-11234D01*
X183017D02*
X183541Y-10710D01*
X184591D01*
X185116Y-11234D01*
Y-13333D01*
X184591Y-13858D01*
X183541D01*
X183017Y-13333D01*
Y-11234D01*
X259619Y-2258D02*
X259094Y-1733D01*
X258045D01*
X257520Y-2258D01*
Y-4357D01*
X258045Y-4882D01*
X259094D01*
X259619Y-4357D01*
X260668D02*
X261193Y-4882D01*
X262243D01*
X262767Y-4357D01*
Y-2258D01*
X262243Y-1733D01*
X261193D01*
X260668Y-2258D01*
Y-2783D01*
X261193Y-3308D01*
X262767D01*
X250485Y-1707D02*
X249960Y-1182D01*
X248911D01*
X248386Y-1707D01*
Y-3806D01*
X248911Y-4331D01*
X249960D01*
X250485Y-3806D01*
X251534Y-1707D02*
X252059Y-1182D01*
X253109D01*
X253633Y-1707D01*
Y-2232D01*
X253109Y-2756D01*
X253633Y-3281D01*
Y-3806D01*
X253109Y-4331D01*
X252059D01*
X251534Y-3806D01*
Y-3281D01*
X252059Y-2756D01*
X251534Y-2232D01*
Y-1707D01*
X252059Y-2756D02*
X253109D01*
X213556Y-36392D02*
X213031Y-35867D01*
X211982D01*
X211457Y-36392D01*
Y-38491D01*
X211982Y-39016D01*
X213031D01*
X213556Y-38491D01*
X214605Y-35867D02*
X216704D01*
Y-36392D01*
X214605Y-38491D01*
Y-39016D01*
X331077Y-24003D02*
X330552Y-24528D01*
Y-25578D01*
X331077Y-26102D01*
X333176D01*
X333701Y-25578D01*
Y-24528D01*
X333176Y-24003D01*
X330552Y-20855D02*
X331077Y-21904D01*
X332126Y-22954D01*
X333176D01*
X333701Y-22429D01*
Y-21380D01*
X333176Y-20855D01*
X332651D01*
X332126Y-21380D01*
Y-22954D01*
X288201Y-23479D02*
X287677Y-22954D01*
X286627D01*
X286102Y-23479D01*
Y-25578D01*
X286627Y-26102D01*
X287677D01*
X288201Y-25578D01*
X291350Y-22954D02*
X289251D01*
Y-24528D01*
X290300Y-24003D01*
X290825D01*
X291350Y-24528D01*
Y-25578D01*
X290825Y-26102D01*
X289776D01*
X289251Y-25578D01*
X289658Y-32101D02*
X289133Y-31576D01*
X288084D01*
X287559Y-32101D01*
Y-34200D01*
X288084Y-34724D01*
X289133D01*
X289658Y-34200D01*
X292282Y-34724D02*
Y-31576D01*
X290708Y-33150D01*
X292807D01*
X251077Y-39909D02*
X250552Y-40434D01*
Y-41483D01*
X251077Y-42008D01*
X253176D01*
X253701Y-41483D01*
Y-40434D01*
X253176Y-39909D01*
X251077Y-38859D02*
X250552Y-38335D01*
Y-37285D01*
X251077Y-36760D01*
X251602D01*
X252127Y-37285D01*
Y-37810D01*
Y-37285D01*
X252651Y-36760D01*
X253176D01*
X253701Y-37285D01*
Y-38335D01*
X253176Y-38859D01*
X76272Y-36116D02*
X75748Y-35592D01*
X74698D01*
X74173Y-36116D01*
Y-38215D01*
X74698Y-38740D01*
X75748D01*
X76272Y-38215D01*
X79421Y-38740D02*
X77322D01*
X79421Y-36641D01*
Y-36116D01*
X78896Y-35592D01*
X77847D01*
X77322Y-36116D01*
X75997Y-16156D02*
X75472Y-15631D01*
X74422D01*
X73898Y-16156D01*
Y-18255D01*
X74422Y-18779D01*
X75472D01*
X75997Y-18255D01*
X77046Y-18779D02*
X78096D01*
X77571D01*
Y-15631D01*
X77046Y-16156D01*
X187284Y-40080D02*
X189383D01*
X188333D01*
Y-43228D01*
X190432Y-40080D02*
X192531Y-43228D01*
Y-40080D02*
X190432Y-43228D01*
X169095Y-43347D02*
Y-40198D01*
X170669D01*
X171194Y-40723D01*
Y-41772D01*
X170669Y-42297D01*
X169095D01*
X170144D02*
X171194Y-43347D01*
X172243Y-40198D02*
X174342Y-43347D01*
Y-40198D02*
X172243Y-43347D01*
D49*
X95917Y-24392D02*
Y-22392D01*
X86917Y-28392D02*
Y-27892D01*
X95917Y-33892D02*
Y-31892D01*
X91417Y-22392D02*
X95917D01*
X91417Y-33892D02*
X95917D01*
X121108Y-30983D02*
X123108D01*
X117108Y-21983D02*
X117608D01*
X111608Y-30983D02*
X113608D01*
X123108D02*
Y-26483D01*
X111608Y-30983D02*
Y-26483D01*
X276514Y-7878D02*
Y-5878D01*
X267514Y-11878D02*
Y-11378D01*
X276514Y-17378D02*
Y-15378D01*
X272014Y-5878D02*
X276514D01*
X272014Y-17378D02*
X276514D01*
X360540Y-31788D02*
Y-29788D01*
X351540Y-35788D02*
Y-35288D01*
X360540Y-41288D02*
Y-39288D01*
X356040Y-29788D02*
X360540D01*
X356040Y-41288D02*
X360540D01*
D50*
X216451Y-29606D02*
Y-29106D01*
X220951Y-29606D02*
Y-29106D01*
M02*
