%FSLAX25Y25*%
%MOIN*%
G70*
G01*
G75*
G04 Layer_Physical_Order=2*
G04 Layer_Color=16711680*
%ADD10R,0.07874X0.07874*%
%ADD11R,0.07087X0.07087*%
%ADD12R,0.03937X0.01575*%
%ADD13R,0.03937X0.03150*%
%ADD14R,0.03150X0.03937*%
%ADD15R,0.03937X0.04724*%
%ADD16R,0.04724X0.03937*%
%ADD17R,0.05118X0.05118*%
%ADD18R,0.02362X0.00787*%
%ADD19R,0.03150X0.00787*%
%ADD20R,0.00787X0.02362*%
%ADD21R,0.00787X0.03150*%
%ADD22C,0.04724*%
%ADD23R,0.11811X0.08268*%
%ADD24R,0.05118X0.03150*%
%ADD25R,0.05118X0.03150*%
%ADD26R,0.05000X0.03600*%
%ADD27R,0.03600X0.03600*%
%ADD28R,0.03600X0.05000*%
%ADD29R,0.03600X0.03600*%
%ADD30R,0.08898X0.12402*%
%ADD31R,0.05906X0.02400*%
%ADD32R,0.05118X0.01260*%
%ADD33C,0.02756*%
%ADD34C,0.00787*%
%ADD35C,0.02362*%
%ADD36C,0.01969*%
%ADD37R,0.09252X0.06142*%
%ADD38C,0.05118*%
%ADD39R,0.05906X0.05906*%
%ADD40C,0.05906*%
%ADD41C,0.01969*%
%ADD42C,0.02756*%
G36*
X175296Y-14771D02*
Y-31792D01*
X173385Y-33703D01*
X173385Y-33703D01*
X171852Y-35236D01*
X171696Y-35205D01*
X171082Y-35328D01*
X170561Y-35676D01*
X170213Y-36197D01*
X170091Y-36811D01*
X170213Y-37426D01*
X170561Y-37946D01*
X171082Y-38295D01*
X171696Y-38417D01*
X172311Y-38295D01*
X172832Y-37946D01*
X173180Y-37426D01*
X173302Y-36811D01*
X173271Y-36656D01*
X174804Y-35122D01*
X174804Y-35122D01*
X177009Y-32918D01*
X177179Y-32662D01*
X177658Y-32807D01*
Y-35607D01*
X176830Y-36435D01*
X176674Y-36404D01*
X176060Y-36527D01*
X175539Y-36875D01*
X175191Y-37396D01*
X175069Y-38010D01*
X175191Y-38625D01*
X175487Y-39067D01*
X175251Y-39508D01*
X170849D01*
X164826Y-33485D01*
Y-33429D01*
X164954Y-33343D01*
X165302Y-32822D01*
X165425Y-32208D01*
X165302Y-31593D01*
X164954Y-31073D01*
X164826Y-30987D01*
Y-30075D01*
X164749Y-29691D01*
X164532Y-29366D01*
X164206Y-29148D01*
X163822Y-29072D01*
X163438Y-29148D01*
X163113Y-29366D01*
X162975Y-29572D01*
X162496Y-29427D01*
Y-21288D01*
X167702Y-16082D01*
X171847D01*
X171935Y-16214D01*
X172456Y-16562D01*
X173071Y-16684D01*
X173685Y-16562D01*
X174206Y-16214D01*
X174554Y-15693D01*
X174677Y-15079D01*
X174584Y-14615D01*
X174880Y-14493D01*
X175296Y-14771D01*
D02*
G37*
G36*
X159302Y-1590D02*
X159211Y-1652D01*
X158724Y-2139D01*
X158723Y-2139D01*
X136885Y-23977D01*
X24016D01*
X23248Y-24130D01*
X22596Y-24565D01*
X16058Y-31104D01*
X15622Y-31755D01*
X15470Y-32523D01*
Y-35870D01*
X15311D01*
Y-40988D01*
X15470D01*
Y-44726D01*
X15311D01*
Y-49844D01*
X15470D01*
Y-53583D01*
X15311D01*
Y-58701D01*
X15470D01*
Y-62440D01*
X15311D01*
Y-67558D01*
X19642D01*
Y-62440D01*
X19484D01*
Y-58701D01*
X19642D01*
Y-53583D01*
X19484D01*
Y-49844D01*
X19642D01*
Y-44726D01*
X19484D01*
Y-40988D01*
X19642D01*
Y-35870D01*
X19484D01*
Y-33355D01*
X24847Y-27991D01*
X137716D01*
X138485Y-27839D01*
X139136Y-27404D01*
X146821Y-19718D01*
X146835Y-19709D01*
X146844Y-19695D01*
X161260Y-5279D01*
X161751Y-5376D01*
X161819Y-5540D01*
X138656Y-28703D01*
X108741D01*
X107973Y-28855D01*
X107322Y-29290D01*
X106887Y-29941D01*
X106734Y-30710D01*
X106887Y-31478D01*
X107322Y-32129D01*
X107973Y-32564D01*
X108741Y-32717D01*
X139487D01*
X140255Y-32564D01*
X140906Y-32129D01*
X153700Y-19335D01*
X154141Y-19571D01*
X154064Y-19961D01*
X154186Y-20575D01*
X154534Y-21096D01*
X155055Y-21444D01*
X155292Y-21491D01*
Y-25909D01*
X155160Y-25997D01*
X154812Y-26518D01*
X154690Y-27133D01*
X154812Y-27747D01*
X155160Y-28268D01*
X155681Y-28616D01*
X156296Y-28738D01*
X156910Y-28616D01*
X157431Y-28268D01*
X157527Y-28124D01*
X158006Y-28270D01*
Y-35307D01*
X158006Y-35307D01*
X158006D01*
X158082Y-35691D01*
X158300Y-36016D01*
X165000Y-42717D01*
X164809Y-43179D01*
X61811D01*
X61386Y-43264D01*
X61025Y-43505D01*
X60784Y-43866D01*
X60699Y-44291D01*
Y-77235D01*
X44094D01*
Y-77214D01*
X41557Y-77381D01*
X39063Y-77877D01*
X36655Y-78694D01*
X34375Y-79819D01*
X32261Y-81231D01*
X30349Y-82908D01*
X28672Y-84820D01*
X27260Y-86934D01*
X26135Y-89214D01*
X25318Y-91622D01*
X24822Y-94116D01*
X24655Y-96654D01*
X24676D01*
X24676Y-96654D01*
Y-97313D01*
X1112D01*
Y-1112D01*
X24676D01*
Y-3346D01*
X24676Y-3347D01*
X24655D01*
X24822Y-5884D01*
X25318Y-8378D01*
X26135Y-10786D01*
X27260Y-13066D01*
X28672Y-15180D01*
X30349Y-17092D01*
X32261Y-18769D01*
X34375Y-20181D01*
X36655Y-21306D01*
X39063Y-22123D01*
X41557Y-22619D01*
X44094Y-22786D01*
X46632Y-22619D01*
X49126Y-22123D01*
X51534Y-21306D01*
X53814Y-20181D01*
X55928Y-18769D01*
X57840Y-17092D01*
X59517Y-15180D01*
X60929Y-13066D01*
X62054Y-10786D01*
X62871Y-8378D01*
X63367Y-5884D01*
X63534Y-3347D01*
X63513D01*
Y-1112D01*
X74861D01*
X74910Y-1609D01*
X74797Y-1632D01*
X74471Y-1849D01*
X72218Y-4102D01*
X71435Y-3778D01*
X70510Y-3656D01*
X69585Y-3778D01*
X68723Y-4135D01*
X67983Y-4703D01*
X67415Y-5443D01*
X67058Y-6305D01*
X66936Y-7230D01*
X67058Y-8155D01*
X67415Y-9017D01*
X67983Y-9757D01*
X68723Y-10325D01*
X69585Y-10682D01*
X70510Y-10804D01*
X71435Y-10682D01*
X72297Y-10325D01*
X73037Y-9757D01*
X73605Y-9017D01*
X73962Y-8155D01*
X74084Y-7230D01*
X73962Y-6305D01*
X73638Y-5522D01*
X75597Y-3563D01*
X76613D01*
X76967Y-3916D01*
Y-10773D01*
X84053D01*
Y-3916D01*
X84053Y-3916D01*
D01*
D01*
X84053Y-3687D01*
D01*
X84177Y-3563D01*
X117931D01*
X132502Y-18134D01*
X132472Y-18290D01*
X132594Y-18904D01*
X132942Y-19425D01*
X133463Y-19773D01*
X134077Y-19895D01*
X134692Y-19773D01*
X135213Y-19425D01*
X135561Y-18904D01*
X135683Y-18290D01*
X135561Y-17675D01*
X135213Y-17154D01*
X134692Y-16806D01*
X134077Y-16684D01*
X133922Y-16715D01*
X119056Y-1850D01*
X118730Y-1632D01*
X118618Y-1609D01*
X118667Y-1112D01*
X159157D01*
X159302Y-1590D01*
D02*
G37*
G36*
X329006Y-8858D02*
X328986D01*
X329152Y-11396D01*
X329648Y-13890D01*
X330466Y-16297D01*
X331591Y-18578D01*
X333003Y-20692D01*
X334680Y-22604D01*
X336592Y-24281D01*
X338706Y-25693D01*
X340986Y-26818D01*
X343394Y-27635D01*
X345888Y-28131D01*
X348425Y-28297D01*
Y-28277D01*
X364243D01*
Y-44291D01*
X364243Y-44291D01*
X364243D01*
X364327Y-44717D01*
X364568Y-45078D01*
X364929Y-45319D01*
X365354Y-45403D01*
X376054D01*
Y-86098D01*
Y-86487D01*
X357481D01*
X357055Y-86571D01*
X356694Y-86812D01*
X356453Y-87173D01*
X356369Y-87599D01*
Y-100069D01*
X341891D01*
X332595Y-97358D01*
X332438Y-97344D01*
X332284Y-97313D01*
X332214D01*
Y-44291D01*
X332130Y-43866D01*
X331889Y-43505D01*
X331895Y-43484D01*
X338304D01*
X338392Y-43616D01*
X338913Y-43964D01*
X339528Y-44086D01*
X340142Y-43964D01*
X340663Y-43616D01*
X341011Y-43095D01*
X341083Y-42732D01*
X341562Y-42587D01*
X354863Y-55888D01*
Y-82241D01*
X354731Y-82329D01*
X354383Y-82850D01*
X354260Y-83465D01*
X354383Y-84079D01*
X354731Y-84600D01*
X355252Y-84948D01*
X355866Y-85070D01*
X356481Y-84948D01*
X357001Y-84600D01*
X357350Y-84079D01*
X357472Y-83465D01*
X357350Y-82850D01*
X357001Y-82329D01*
X356870Y-82241D01*
Y-55472D01*
X356793Y-55088D01*
X356576Y-54763D01*
X349955Y-48142D01*
X349968Y-48117D01*
X350736Y-47964D01*
X351388Y-47529D01*
X351823Y-46878D01*
X351975Y-46110D01*
X351823Y-45342D01*
X351388Y-44691D01*
X335356Y-28659D01*
X334705Y-28225D01*
X333937Y-28072D01*
X278942D01*
X269411Y-18541D01*
X268760Y-18106D01*
X267992Y-17954D01*
X267224Y-18106D01*
X266573Y-18541D01*
X266138Y-19193D01*
X265985Y-19961D01*
X266138Y-20729D01*
X266573Y-21380D01*
X276691Y-31498D01*
D01*
X276691D01*
X276691Y-31498D01*
X276691Y-31498D01*
X276691D01*
D01*
X276691D01*
X276691Y-31498D01*
Y-31498D01*
X276691Y-31498D01*
Y-31498D01*
X277342Y-31933D01*
X278110Y-32086D01*
X333106D01*
X340066Y-39046D01*
X339875Y-39508D01*
X185939D01*
X185704Y-39067D01*
X185854Y-38843D01*
X185976Y-38228D01*
X185854Y-37614D01*
X185505Y-37093D01*
X184985Y-36745D01*
X184370Y-36623D01*
X184215Y-36654D01*
X182972Y-35411D01*
Y-25896D01*
X183450Y-25751D01*
X183581Y-25947D01*
X184232Y-26382D01*
X185000Y-26535D01*
X251850D01*
X252619Y-26382D01*
X253270Y-25947D01*
X253705Y-25296D01*
X253857Y-24528D01*
X253705Y-23760D01*
X253270Y-23108D01*
X252619Y-22673D01*
X251850Y-22521D01*
X222757D01*
X222439Y-22134D01*
X222551Y-21575D01*
X222428Y-20960D01*
X222080Y-20439D01*
X221559Y-20091D01*
X222080Y-19679D01*
X222080Y-19679D01*
Y-19679D01*
X222080Y-19679D01*
X222080Y-19679D01*
X222080Y-19679D01*
X222080Y-19679D01*
D01*
X222428Y-19158D01*
X222551Y-18543D01*
X222428Y-17929D01*
X222080Y-17408D01*
X221559Y-17060D01*
X222080Y-16647D01*
X222080Y-16647D01*
Y-16647D01*
X222080Y-16647D01*
X222080Y-16647D01*
X222080Y-16647D01*
X222080Y-16647D01*
D01*
X222428Y-16126D01*
X222551Y-15512D01*
X222428Y-14897D01*
X222080Y-14376D01*
X221559Y-14028D01*
X220945Y-13906D01*
X220330Y-14028D01*
X219810Y-14376D01*
X219461Y-14897D01*
X219339Y-15512D01*
X219461Y-16126D01*
X219810Y-16647D01*
X220005Y-16778D01*
Y-17278D01*
X219810Y-17408D01*
X219461Y-17929D01*
X219339Y-18543D01*
X219461Y-19158D01*
X219810Y-19679D01*
X220005Y-19809D01*
Y-20309D01*
X219810Y-20439D01*
X219461Y-20960D01*
X219339Y-21575D01*
X219450Y-22134D01*
X219148Y-22503D01*
X218648D01*
X218345Y-22134D01*
X218456Y-21575D01*
X218334Y-20960D01*
X217986Y-20439D01*
X217465Y-20091D01*
X217986Y-19679D01*
X217986Y-19679D01*
Y-19679D01*
X217986Y-19679D01*
X217986Y-19679D01*
X217986Y-19679D01*
X217986Y-19679D01*
D01*
X218334Y-19158D01*
X218456Y-18543D01*
X218334Y-17929D01*
X217986Y-17408D01*
X217465Y-17060D01*
X217986Y-16647D01*
X217986Y-16647D01*
Y-16647D01*
X217986Y-16647D01*
X217986Y-16647D01*
X217986Y-16647D01*
X217986Y-16647D01*
D01*
X218334Y-16126D01*
X218456Y-15512D01*
X218334Y-14897D01*
X217986Y-14376D01*
X217465Y-14028D01*
X216850Y-13906D01*
X216236Y-14028D01*
X215715Y-14376D01*
X215367Y-14897D01*
X215245Y-15512D01*
X215367Y-16126D01*
X215715Y-16647D01*
X215910Y-16778D01*
Y-17278D01*
X215715Y-17408D01*
X215367Y-17929D01*
X215245Y-18543D01*
X215367Y-19158D01*
X215715Y-19679D01*
X215910Y-19809D01*
Y-20309D01*
X215715Y-20439D01*
X215367Y-20960D01*
X215245Y-21575D01*
X215356Y-22134D01*
X215039Y-22521D01*
X185000D01*
X184232Y-22673D01*
X183581Y-23108D01*
X183450Y-23304D01*
X182972Y-23159D01*
Y-21775D01*
X183104Y-21687D01*
X183452Y-21166D01*
X183574Y-20551D01*
X183452Y-19937D01*
X183104Y-19416D01*
X182583Y-19068D01*
X181968Y-18946D01*
X182187Y-18617D01*
X182425Y-18570D01*
X182946Y-18222D01*
X183008Y-18129D01*
X188338D01*
X188426Y-18261D01*
X188947Y-18609D01*
X189562Y-18732D01*
X190176Y-18609D01*
X190697Y-18261D01*
X191045Y-17740D01*
X191167Y-17126D01*
X191045Y-16511D01*
X190697Y-15991D01*
X190176Y-15643D01*
X189562Y-15520D01*
X188947Y-15643D01*
X188426Y-15991D01*
X188338Y-16123D01*
X183061D01*
X182946Y-15951D01*
X182425Y-15603D01*
X181811Y-15481D01*
X181197Y-15603D01*
X180676Y-15951D01*
X180629Y-16022D01*
X180448Y-16058D01*
X180105D01*
X179797Y-15597D01*
X179276Y-15249D01*
X178661Y-15127D01*
X178047Y-15249D01*
X177744Y-15451D01*
X177303Y-15216D01*
Y-14688D01*
X177435Y-14600D01*
X177783Y-14079D01*
X177905Y-13465D01*
X177783Y-12850D01*
X178012Y-12421D01*
X186378D01*
X186762Y-12344D01*
X187088Y-12127D01*
X187305Y-11801D01*
X187381Y-11417D01*
X187305Y-11033D01*
X187088Y-10708D01*
X186762Y-10490D01*
X186378Y-10414D01*
X166499D01*
X166115Y-10490D01*
X165790Y-10708D01*
X165192Y-11305D01*
X161256Y-15242D01*
X161038Y-15567D01*
X160962Y-15951D01*
X161038Y-16335D01*
X161256Y-16661D01*
X161581Y-16879D01*
X161965Y-16955D01*
X162349Y-16879D01*
X162675Y-16661D01*
X166915Y-12421D01*
X174586D01*
X174816Y-12850D01*
X174694Y-13465D01*
X174786Y-13928D01*
X174324Y-14119D01*
X174206Y-13943D01*
X173685Y-13595D01*
X173071Y-13473D01*
X172456Y-13595D01*
X171935Y-13943D01*
X171847Y-14075D01*
X167287D01*
X166903Y-14152D01*
X166577Y-14369D01*
X166575Y-14373D01*
X166570Y-14376D01*
X160783Y-20163D01*
X160566Y-20489D01*
X160565Y-20489D01*
Y-20489D01*
X160141Y-20479D01*
X159620Y-20131D01*
X159006Y-20008D01*
X158391Y-20131D01*
X157870Y-20479D01*
X157798Y-20587D01*
X157617Y-20587D01*
X157286Y-20522D01*
X157225Y-20212D01*
X157275Y-19961D01*
X157153Y-19346D01*
X156805Y-18825D01*
X156284Y-18477D01*
X155669Y-18355D01*
X155279Y-18432D01*
X155044Y-17992D01*
X164138Y-8897D01*
X276024D01*
X276792Y-8744D01*
X277443Y-8309D01*
X277878Y-7658D01*
X278031Y-6890D01*
X277878Y-6122D01*
X277443Y-5471D01*
X276792Y-5035D01*
X276024Y-4883D01*
X238262D01*
X238026Y-4442D01*
X238429Y-3839D01*
X238582Y-3071D01*
X238429Y-2303D01*
X237994Y-1652D01*
X237403Y-1257D01*
Y-1257D01*
X237403D01*
X237343Y-1217D01*
Y-1217D01*
X237353Y-1112D01*
X329006D01*
Y-8858D01*
D02*
G37*
%LPC*%
G36*
X25941Y-35870D02*
X21611D01*
Y-40988D01*
X25941D01*
Y-39432D01*
X28815D01*
X28886Y-39539D01*
X29407Y-39887D01*
X30022Y-40009D01*
X30636Y-39887D01*
X31157Y-39539D01*
X31505Y-39018D01*
X31627Y-38404D01*
X31505Y-37789D01*
X31157Y-37268D01*
X30636Y-36920D01*
X30022Y-36798D01*
X29407Y-36920D01*
X28886Y-37268D01*
X28781Y-37425D01*
X25941D01*
Y-35870D01*
D02*
G37*
G36*
Y-44726D02*
X21611D01*
Y-49844D01*
X24916D01*
X28949Y-53877D01*
X29274Y-54095D01*
X29338Y-54107D01*
X29658Y-54171D01*
X30412D01*
X30500Y-54303D01*
X31021Y-54651D01*
X31636Y-54773D01*
X32250Y-54651D01*
X32771Y-54303D01*
X33119Y-53782D01*
X33241Y-53167D01*
X33119Y-52553D01*
X32771Y-52032D01*
X32250Y-51684D01*
X31636Y-51562D01*
X31021Y-51684D01*
X30500Y-52032D01*
X30496Y-52039D01*
X29998Y-52088D01*
X25941Y-48031D01*
Y-44726D01*
D02*
G37*
G36*
Y-53583D02*
X21611D01*
Y-58701D01*
X24916D01*
X25013Y-58798D01*
X25339Y-59016D01*
X25723Y-59092D01*
X27853D01*
X27941Y-59224D01*
X28462Y-59572D01*
X29077Y-59694D01*
X29691Y-59572D01*
X30212Y-59224D01*
X30560Y-58703D01*
X30682Y-58089D01*
X30560Y-57474D01*
X30212Y-56953D01*
X29691Y-56605D01*
X29077Y-56483D01*
X28462Y-56605D01*
X27941Y-56953D01*
X27853Y-57085D01*
X26138D01*
X25941Y-56888D01*
Y-53583D01*
D02*
G37*
G36*
X349687Y-65170D02*
X348762Y-65292D01*
X347900Y-65649D01*
X347159Y-66217D01*
X346591Y-66957D01*
X346234Y-67819D01*
X346113Y-68744D01*
X346234Y-69669D01*
X346591Y-70531D01*
X347159Y-71271D01*
X347900Y-71839D01*
X348762Y-72196D01*
X349687Y-72318D01*
X350611Y-72196D01*
X351473Y-71839D01*
X352214Y-71271D01*
X352782Y-70531D01*
X353139Y-69669D01*
X353260Y-68744D01*
X353139Y-67819D01*
X352782Y-66957D01*
X352214Y-66217D01*
X351473Y-65649D01*
X350611Y-65292D01*
X349687Y-65170D01*
D02*
G37*
G36*
X367403D02*
X366478Y-65292D01*
X365616Y-65649D01*
X364876Y-66217D01*
X364308Y-66957D01*
X363951Y-67819D01*
X363829Y-68744D01*
X363951Y-69669D01*
X364308Y-70531D01*
X364876Y-71271D01*
X365616Y-71839D01*
X366478Y-72196D01*
X367403Y-72318D01*
X368328Y-72196D01*
X369190Y-71839D01*
X369930Y-71271D01*
X370498Y-70531D01*
X370855Y-69669D01*
X370977Y-68744D01*
X370855Y-67819D01*
X370498Y-66957D01*
X369930Y-66217D01*
X369190Y-65649D01*
X368328Y-65292D01*
X367403Y-65170D01*
D02*
G37*
G36*
X31833Y-61404D02*
X31218Y-61527D01*
X30697Y-61875D01*
X30609Y-62006D01*
X25765D01*
X25381Y-62083D01*
X25055Y-62300D01*
X24916Y-62440D01*
X21611D01*
Y-67558D01*
X25941D01*
Y-64253D01*
X26180Y-64013D01*
X30609D01*
X30697Y-64145D01*
X31218Y-64493D01*
X31833Y-64616D01*
X32447Y-64493D01*
X32968Y-64145D01*
X33316Y-63625D01*
X33438Y-63010D01*
X33316Y-62396D01*
X32968Y-61875D01*
X32447Y-61527D01*
X31833Y-61404D01*
D02*
G37*
G36*
X98418Y-6344D02*
X97003Y-6530D01*
X95684Y-7076D01*
X94551Y-7945D01*
X93682Y-9078D01*
X93136Y-10396D01*
X92950Y-11812D01*
X93136Y-13227D01*
X93682Y-14546D01*
X94551Y-15678D01*
X95684Y-16547D01*
X97003Y-17093D01*
X98418Y-17280D01*
X99833Y-17093D01*
X101152Y-16547D01*
X102285Y-15678D01*
X103153Y-14546D01*
X103700Y-13227D01*
X103886Y-11812D01*
X103700Y-10396D01*
X103153Y-9078D01*
X102285Y-7945D01*
X101152Y-7076D01*
X99833Y-6530D01*
X98418Y-6344D01*
D02*
G37*
G36*
X291332Y-7138D02*
X290122Y-7297D01*
X288995Y-7764D01*
X288027Y-8507D01*
X287284Y-9475D01*
X286817Y-10602D01*
X286658Y-11812D01*
X286817Y-13021D01*
X287284Y-14149D01*
X288027Y-15117D01*
X288995Y-15859D01*
X290122Y-16326D01*
X291332Y-16486D01*
X292541Y-16326D01*
X293668Y-15859D01*
X294636Y-15117D01*
X295379Y-14149D01*
X295846Y-13021D01*
X296005Y-11812D01*
X295846Y-10602D01*
X295379Y-9475D01*
X294636Y-8507D01*
X293668Y-7764D01*
X292541Y-7297D01*
X291332Y-7138D01*
D02*
G37*
G36*
X323493Y-3067D02*
X316407D01*
Y-10153D01*
X323493D01*
Y-3067D01*
D02*
G37*
G36*
X331044Y-34823D02*
X239469D01*
X238701Y-34976D01*
X238050Y-35411D01*
X237615Y-36062D01*
X237462Y-36830D01*
X237615Y-37598D01*
X238050Y-38249D01*
X238701Y-38684D01*
X239469Y-38837D01*
X331044D01*
X331812Y-38684D01*
X332463Y-38249D01*
X332898Y-37598D01*
X333051Y-36830D01*
X332898Y-36062D01*
X332463Y-35411D01*
X331812Y-34976D01*
X331044Y-34823D01*
D02*
G37*
G36*
X315838Y-19980D02*
X315223Y-20102D01*
X314702Y-20450D01*
X314614Y-20582D01*
X311914D01*
X311594Y-20646D01*
X311530Y-20659D01*
X311204Y-20876D01*
X310526Y-21554D01*
X307331D01*
Y-25885D01*
X312449D01*
Y-22589D01*
X314614D01*
X314702Y-22721D01*
X315223Y-23069D01*
X315838Y-23191D01*
X316452Y-23069D01*
X316973Y-22721D01*
X317321Y-22200D01*
X317443Y-21586D01*
X317321Y-20971D01*
X316973Y-20450D01*
X316452Y-20102D01*
X315838Y-19980D01*
D02*
G37*
G36*
X309950Y-3036D02*
X309025Y-3158D01*
X308163Y-3515D01*
X307423Y-4083D01*
X306855Y-4823D01*
X306498Y-5685D01*
X306376Y-6610D01*
X306498Y-7535D01*
X306855Y-8397D01*
X307423Y-9137D01*
X307943Y-9536D01*
Y-15255D01*
X307331D01*
Y-19586D01*
X312449D01*
Y-15255D01*
X311957D01*
Y-9536D01*
X312477Y-9137D01*
X313045Y-8397D01*
X313402Y-7535D01*
X313524Y-6610D01*
X313402Y-5685D01*
X313045Y-4823D01*
X312477Y-4083D01*
X311737Y-3515D01*
X310875Y-3158D01*
X309950Y-3036D01*
D02*
G37*
%LPD*%
D13*
X309890Y-17420D02*
D03*
Y-23720D02*
D03*
D14*
X17477Y-56142D02*
D03*
X23776D02*
D03*
X17477Y-38429D02*
D03*
X23776D02*
D03*
X17477Y-47285D02*
D03*
X23776D02*
D03*
X17477Y-64999D02*
D03*
X23776D02*
D03*
D33*
X309950Y-17360D02*
Y-6610D01*
X267992Y-19961D02*
X278110Y-30079D01*
X333937D01*
X349968Y-46110D01*
X239469Y-36830D02*
X331044D01*
X17477Y-64999D02*
Y-56142D01*
Y-47285D01*
Y-38429D01*
Y-32523D02*
X24016Y-25984D01*
X17477Y-38429D02*
Y-32523D01*
X185000Y-24528D02*
X251850D01*
X24016Y-25984D02*
X137716D01*
X160143Y-3558D01*
X160630Y-3071D02*
X236575D01*
X160143Y-3558D02*
X160630Y-3071D01*
X196653Y-6890D02*
X276024D01*
X108741Y-30710D02*
X139487D01*
X163307Y-6890D01*
X196653D01*
D34*
X25765Y-63010D02*
X31833D01*
X23776Y-64999D02*
X25765Y-63010D01*
X25723Y-58089D02*
X29077D01*
X23776Y-56142D02*
X25723Y-58089D01*
X29658Y-53167D02*
X31636D01*
X23776Y-47285D02*
X29658Y-53167D01*
X23776Y-38429D02*
X29996D01*
X163822Y-33901D02*
Y-30075D01*
X171696Y-36811D02*
X174094Y-34413D01*
X161493Y-35007D02*
Y-20873D01*
X163822Y-33901D02*
X170433Y-40512D01*
X311914Y-21586D02*
X315838D01*
X309684Y-23815D02*
X309835Y-23665D01*
X311914Y-21586D01*
X170433Y-40512D02*
X340905D01*
X355866Y-55472D01*
Y-83465D02*
Y-55472D01*
X118347Y-2559D02*
X134077Y-18290D01*
X75181Y-2559D02*
X118347D01*
X70510Y-7230D02*
X75181Y-2559D01*
X161493Y-20873D02*
X167280Y-15085D01*
X161965Y-15951D02*
X165902Y-12015D01*
X159009Y-35307D02*
X166182Y-42480D01*
X159009Y-35307D02*
Y-21614D01*
X166182Y-42480D02*
X339528D01*
X181811Y-17126D02*
X189562D01*
X167287Y-15079D02*
X173071D01*
X170984Y-11417D02*
X186378D01*
X176299Y-32208D02*
Y-13465D01*
X171696Y-36811D02*
X176299Y-32208D01*
X166499Y-11417D02*
X170984D01*
X161965Y-15951D02*
X166499Y-11417D01*
X155669Y-19961D02*
X156296Y-20587D01*
Y-27133D02*
Y-20587D01*
X181968Y-35826D02*
X184370Y-38228D01*
X181968Y-35826D02*
Y-20551D01*
X178661Y-36023D02*
Y-16732D01*
X176674Y-38010D02*
X178661Y-36023D01*
D38*
X367403Y-68744D02*
D03*
X349687D02*
D03*
D39*
X319950Y-6610D02*
D03*
X80510Y-7230D02*
D03*
D40*
X309950Y-6610D02*
D03*
X70510Y-7230D02*
D03*
D41*
X31636Y-53167D02*
D03*
X29077Y-58089D02*
D03*
X31833Y-63010D02*
D03*
X30022Y-38404D02*
D03*
X178661Y-16732D02*
D03*
X181811Y-17087D02*
D03*
X176674Y-38010D02*
D03*
X184370Y-38228D02*
D03*
X163819Y-32208D02*
D03*
X173071Y-15079D02*
D03*
X171696Y-36811D02*
D03*
X159006Y-21614D02*
D03*
X161493Y-35007D02*
D03*
X315838Y-21586D02*
D03*
X176299Y-13465D02*
D03*
X189562Y-17126D02*
D03*
X355866Y-83465D02*
D03*
X339528Y-42480D02*
D03*
X349968Y-46110D02*
D03*
X168776Y-23471D02*
D03*
Y-26030D02*
D03*
X171414D02*
D03*
Y-23511D02*
D03*
X216850Y-15512D02*
D03*
Y-18543D02*
D03*
X220945Y-15512D02*
D03*
X216850Y-21575D02*
D03*
X146811Y-4961D02*
D03*
X134077Y-18290D02*
D03*
X30197Y-45748D02*
D03*
X43425Y-45197D02*
D03*
X220945Y-18543D02*
D03*
Y-21575D02*
D03*
X155669Y-19961D02*
D03*
X156296Y-27133D02*
D03*
X161965Y-15951D02*
D03*
X256378Y-3032D02*
D03*
X351181Y-54213D02*
D03*
X255906Y-31772D02*
D03*
X250827Y-31653D02*
D03*
X233583Y-31378D02*
D03*
X181968Y-20551D02*
D03*
X170984Y-11417D02*
D03*
X186378D02*
D03*
X267835Y-3110D02*
D03*
X268307Y-10630D02*
D03*
X255591Y-10905D02*
D03*
X290945Y-24370D02*
D03*
X354921Y-39173D02*
D03*
X338150Y-82402D02*
D03*
X31417Y-31339D02*
D03*
X339016Y-95000D02*
D03*
X24449Y-18898D02*
D03*
X110000Y-20945D02*
D03*
X31417Y-72913D02*
D03*
X68583Y-32205D02*
D03*
X86457Y-19764D02*
D03*
X72165Y-17362D02*
D03*
X56811Y-32008D02*
D03*
X57047Y-59252D02*
D03*
X126772Y-15551D02*
D03*
X132992Y-4567D02*
D03*
X88150Y-7520D02*
D03*
X108583Y-6260D02*
D03*
D42*
X267992Y-19961D02*
D03*
X239469Y-36830D02*
D03*
X331044D02*
D03*
X108741Y-30710D02*
D03*
X236575Y-3071D02*
D03*
X276024Y-6890D02*
D03*
X251850Y-24528D02*
D03*
X185000D02*
D03*
X145416Y-18290D02*
D03*
X160143Y-3558D02*
D03*
X196653Y-6890D02*
D03*
M02*
