%FSLAX25Y25*%
%MOIN*%
G70*
G01*
G75*
G04 Layer_Color=2752767*
%ADD10R,0.07874X0.07874*%
%ADD11R,0.07087X0.07087*%
%ADD12R,0.03937X0.01575*%
%ADD13R,0.03937X0.03150*%
%ADD14R,0.03150X0.03937*%
%ADD15R,0.03937X0.04724*%
%ADD16R,0.04724X0.03937*%
%ADD17R,0.05118X0.05118*%
%ADD18R,0.02362X0.00787*%
%ADD19R,0.03150X0.00787*%
%ADD20R,0.00787X0.02362*%
%ADD21R,0.00787X0.03150*%
%ADD22C,0.04724*%
%ADD23R,0.11811X0.08268*%
%ADD24R,0.05118X0.03150*%
%ADD25R,0.05118X0.03150*%
%ADD26R,0.05000X0.03600*%
%ADD27R,0.03600X0.03600*%
%ADD28R,0.03600X0.05000*%
%ADD29R,0.03600X0.03600*%
%ADD30R,0.08898X0.12402*%
%ADD31R,0.05906X0.02400*%
%ADD32R,0.05118X0.01260*%
%ADD33C,0.02756*%
%ADD34C,0.00787*%
%ADD35C,0.02362*%
%ADD36C,0.01969*%
%ADD37R,0.09252X0.06142*%
%ADD38C,0.05118*%
%ADD39R,0.05906X0.05906*%
%ADD40C,0.05906*%
%ADD41C,0.01969*%
%ADD42C,0.02756*%
%ADD43C,0.01000*%
%ADD44C,0.00600*%
%ADD45C,0.00984*%
%ADD46C,0.00500*%
%ADD47C,0.00709*%
%ADD48C,0.00591*%
%ADD49C,0.01200*%
%ADD50C,0.00492*%
%ADD51R,0.08674X0.08674*%
%ADD52R,0.07887X0.07887*%
%ADD53R,0.04737X0.02375*%
%ADD54R,0.04737X0.03950*%
%ADD55R,0.03950X0.04737*%
%ADD56R,0.04737X0.05524*%
%ADD57R,0.05524X0.04737*%
%ADD58R,0.05918X0.05918*%
%ADD59R,0.03162X0.01587*%
%ADD60R,0.03950X0.01587*%
%ADD61R,0.01587X0.03162*%
%ADD62R,0.01587X0.03950*%
%ADD63C,0.05524*%
%ADD64R,0.12611X0.09068*%
%ADD65R,0.05918X0.03950*%
%ADD66R,0.05918X0.03950*%
%ADD67R,0.05800X0.04400*%
%ADD68R,0.04400X0.04400*%
%ADD69R,0.04400X0.05800*%
%ADD70R,0.04400X0.04400*%
%ADD71R,0.09698X0.13202*%
%ADD72R,0.06706X0.03200*%
%ADD73R,0.05918X0.02060*%
%ADD74C,0.05918*%
%ADD75R,0.06706X0.06706*%
%ADD76C,0.06706*%
%ADD77C,0.02769*%
%ADD78C,0.03556*%
%ADD79C,0.00667*%
D50*
X365403Y-70744D02*
Y-66744D01*
X369403D01*
Y-70744D01*
X365403D01*
X347687D02*
Y-66744D01*
X351687D01*
Y-70744D01*
X347687D01*
X31636Y-55168D02*
X29636Y-51168D01*
X33636D01*
X31636Y-55168D01*
X29077Y-60089D02*
X27077Y-56089D01*
X31077D01*
X29077Y-60089D01*
X31833Y-65010D02*
X29833Y-61010D01*
X33832D01*
X31833Y-65010D01*
X30022Y-40404D02*
X28021Y-36404D01*
X32021D01*
X30022Y-40404D01*
X178661Y-18732D02*
X176661Y-14732D01*
X180661D01*
X178661Y-18732D01*
X181811Y-19087D02*
X179811Y-15087D01*
X183811D01*
X181811Y-19087D01*
X176674Y-40010D02*
X174674Y-36010D01*
X178674D01*
X176674Y-40010D01*
X184370Y-40228D02*
X182370Y-36228D01*
X186370D01*
X184370Y-40228D01*
X163819Y-34208D02*
X161819Y-30208D01*
X165819D01*
X163819Y-34208D01*
X173071Y-17079D02*
X171071Y-13079D01*
X175071D01*
X173071Y-17079D01*
X171696Y-38811D02*
X169696Y-34811D01*
X173696D01*
X171696Y-38811D01*
X159006Y-23614D02*
X157006Y-19614D01*
X161006D01*
X159006Y-23614D01*
X161493Y-37007D02*
X159493Y-33007D01*
X163493D01*
X161493Y-37007D01*
X315838Y-23586D02*
X313838Y-19586D01*
X317838D01*
X315838Y-23586D01*
X176299Y-15465D02*
X174299Y-11465D01*
X178299D01*
X176299Y-15465D01*
X189562Y-19126D02*
X187562Y-15126D01*
X191562D01*
X189562Y-19126D01*
X355866Y-85465D02*
X353866Y-81465D01*
X357866D01*
X355866Y-85465D01*
X339528Y-44480D02*
X337528Y-40480D01*
X341528D01*
X339528Y-44480D01*
X349968Y-48110D02*
X347968Y-44110D01*
X351968D01*
X349968Y-48110D01*
X267992Y-21961D02*
X268992Y-20961D01*
X269992D01*
X268992Y-19961D01*
X269992Y-18961D01*
X268992D01*
X267992Y-17961D01*
X266992Y-18961D01*
X265992D01*
X266992Y-19961D01*
X265992Y-20961D01*
X266992D01*
X267992Y-21961D01*
X239469Y-38830D02*
X240469Y-37830D01*
X241469D01*
X240469Y-36830D01*
X241469Y-35830D01*
X240469D01*
X239469Y-34830D01*
X238469Y-35830D01*
X237469D01*
X238469Y-36830D01*
X237469Y-37830D01*
X238469D01*
X239469Y-38830D01*
X331044D02*
X332044Y-37830D01*
X333044D01*
X332044Y-36830D01*
X333044Y-35830D01*
X332044D01*
X331044Y-34830D01*
X330044Y-35830D01*
X329044D01*
X330044Y-36830D01*
X329044Y-37830D01*
X330044D01*
X331044Y-38830D01*
X108741Y-32710D02*
X109741Y-31710D01*
X110741D01*
X109741Y-30710D01*
X110741Y-29710D01*
X109741D01*
X108741Y-28710D01*
X107741Y-29710D01*
X106741D01*
X107741Y-30710D01*
X106741Y-31710D01*
X107741D01*
X108741Y-32710D01*
X236575Y-5071D02*
X237575Y-4071D01*
X238575D01*
X237575Y-3071D01*
X238575Y-2071D01*
X237575D01*
X236575Y-1071D01*
X235575Y-2071D01*
X234575D01*
X235575Y-3071D01*
X234575Y-4071D01*
X235575D01*
X236575Y-5071D01*
X276024Y-8890D02*
X277024Y-7890D01*
X278024D01*
X277024Y-6890D01*
X278024Y-5890D01*
X277024D01*
X276024Y-4890D01*
X275024Y-5890D01*
X274024D01*
X275024Y-6890D01*
X274024Y-7890D01*
X275024D01*
X276024Y-8890D01*
X168776Y-25471D02*
X166776Y-21471D01*
X170776D01*
X168776Y-25471D01*
Y-28030D02*
X166776Y-24030D01*
X170776D01*
X168776Y-28030D01*
X171414D02*
X169414Y-24030D01*
X173414D01*
X171414Y-28030D01*
Y-25511D02*
X169414Y-21511D01*
X173414D01*
X171414Y-25511D01*
X216850Y-17512D02*
X214850Y-13512D01*
X218850D01*
X216850Y-17512D01*
Y-20543D02*
X214850Y-16543D01*
X218850D01*
X216850Y-20543D01*
X220945Y-17512D02*
X218945Y-13512D01*
X222945D01*
X220945Y-17512D01*
X216850Y-23575D02*
X214850Y-19575D01*
X218850D01*
X216850Y-23575D01*
X146811Y-6961D02*
X144811Y-2961D01*
X148811D01*
X146811Y-6961D01*
X134077Y-20290D02*
X132077Y-16290D01*
X136077D01*
X134077Y-20290D01*
X30197Y-47748D02*
X28197Y-43748D01*
X32197D01*
X30197Y-47748D01*
X43425Y-47197D02*
X41425Y-43197D01*
X45425D01*
X43425Y-47197D01*
X251850Y-26528D02*
X252850Y-25528D01*
X253850D01*
X252850Y-24528D01*
X253850Y-23528D01*
X252850D01*
X251850Y-22528D01*
X250850Y-23528D01*
X249850D01*
X250850Y-24528D01*
X249850Y-25528D01*
X250850D01*
X251850Y-26528D01*
X220945Y-20543D02*
X218945Y-16543D01*
X222945D01*
X220945Y-20543D01*
Y-23575D02*
X218945Y-19575D01*
X222945D01*
X220945Y-23575D01*
X185000Y-26528D02*
X186000Y-25528D01*
X187000D01*
X186000Y-24528D01*
X187000Y-23528D01*
X186000D01*
X185000Y-22528D01*
X184000Y-23528D01*
X183000D01*
X184000Y-24528D01*
X183000Y-25528D01*
X184000D01*
X185000Y-26528D01*
X145416Y-20290D02*
X146416Y-19290D01*
X147416D01*
X146416Y-18290D01*
X147416Y-17290D01*
X146416D01*
X145416Y-16290D01*
X144416Y-17290D01*
X143416D01*
X144416Y-18290D01*
X143416Y-19290D01*
X144416D01*
X145416Y-20290D01*
X160143Y-5558D02*
X161143Y-4558D01*
X162143D01*
X161143Y-3558D01*
X162143Y-2558D01*
X161143D01*
X160143Y-1558D01*
X159143Y-2558D01*
X158143D01*
X159143Y-3558D01*
X158143Y-4558D01*
X159143D01*
X160143Y-5558D01*
X196653Y-8890D02*
X197653Y-7890D01*
X198653D01*
X197653Y-6890D01*
X198653Y-5890D01*
X197653D01*
X196653Y-4890D01*
X195653Y-5890D01*
X194653D01*
X195653Y-6890D01*
X194653Y-7890D01*
X195653D01*
X196653Y-8890D01*
X155669Y-21961D02*
X153669Y-17961D01*
X157669D01*
X155669Y-21961D01*
X156296Y-29133D02*
X154296Y-25133D01*
X158296D01*
X156296Y-29133D01*
X161965Y-17952D02*
X159965Y-13951D01*
X163965D01*
X161965Y-17952D01*
X256378Y-5032D02*
X254378Y-1032D01*
X258378D01*
X256378Y-5032D01*
X351181Y-56213D02*
X349181Y-52213D01*
X353181D01*
X351181Y-56213D01*
X255906Y-33772D02*
X253906Y-29772D01*
X257906D01*
X255906Y-33772D01*
X250827Y-33654D02*
X248827Y-29653D01*
X252827D01*
X250827Y-33654D01*
X233583Y-33378D02*
X231583Y-29378D01*
X235583D01*
X233583Y-33378D01*
X181968Y-22551D02*
X179968Y-18551D01*
X183968D01*
X181968Y-22551D01*
X170984Y-13417D02*
X168984Y-9417D01*
X172984D01*
X170984Y-13417D01*
X186378D02*
X184378Y-9417D01*
X188378D01*
X186378Y-13417D01*
X267835Y-5110D02*
X265835Y-1110D01*
X269835D01*
X267835Y-5110D01*
X268307Y-12630D02*
X266307Y-8630D01*
X270307D01*
X268307Y-12630D01*
X255591Y-12905D02*
X253590Y-8906D01*
X257591D01*
X255591Y-12905D01*
X290945Y-26370D02*
X288945Y-22370D01*
X292945D01*
X290945Y-26370D01*
X354921Y-41173D02*
X352921Y-37173D01*
X356921D01*
X354921Y-41173D01*
X338150Y-84402D02*
X336150Y-80402D01*
X340150D01*
X338150Y-84402D01*
X31417Y-33339D02*
X29417Y-29339D01*
X33417D01*
X31417Y-33339D01*
X339016Y-97000D02*
X337016Y-93000D01*
X341016D01*
X339016Y-97000D01*
X24449Y-20898D02*
X22449Y-16898D01*
X26449D01*
X24449Y-20898D01*
X110000Y-22945D02*
X108000Y-18945D01*
X112000D01*
X110000Y-22945D01*
X31417Y-74913D02*
X29417Y-70913D01*
X33417D01*
X31417Y-74913D01*
X68583Y-34205D02*
X66583Y-30205D01*
X70583D01*
X68583Y-34205D01*
X86457Y-21764D02*
X84457Y-17764D01*
X88457D01*
X86457Y-21764D01*
X72165Y-19362D02*
X70165Y-15362D01*
X74165D01*
X72165Y-19362D01*
X56811Y-34008D02*
X54811Y-30008D01*
X58811D01*
X56811Y-34008D01*
X57047Y-61252D02*
X55047Y-57252D01*
X59047D01*
X57047Y-61252D01*
X126772Y-17551D02*
X124772Y-13551D01*
X128772D01*
X126772Y-17551D01*
X132992Y-6567D02*
X130992Y-2567D01*
X134992D01*
X132992Y-6567D01*
X88150Y-9520D02*
X86150Y-5520D01*
X90150D01*
X88150Y-9520D01*
X108583Y-8260D02*
X106583Y-4260D01*
X110583D01*
X108583Y-8260D01*
D79*
X321950Y-6610D02*
G03*
X321950Y-6610I-2000J0D01*
G01*
X311950D02*
G03*
X311950Y-6610I-2000J0D01*
G01*
X82510Y-7230D02*
G03*
X82510Y-7230I-2000J0D01*
G01*
X72510D02*
G03*
X72510Y-7230I-2000J0D01*
G01*
M02*
