%FSLAX25Y25*%
%MOIN*%
G70*
G01*
G75*
G04 Layer_Color=8388736*
%ADD10R,0.07874X0.07874*%
%ADD11R,0.07087X0.07087*%
%ADD12R,0.03937X0.01575*%
%ADD13R,0.03937X0.03150*%
%ADD14R,0.03150X0.03937*%
%ADD15R,0.03937X0.04724*%
%ADD16R,0.04724X0.03937*%
%ADD17R,0.05118X0.05118*%
%ADD18R,0.02362X0.00787*%
%ADD19R,0.03150X0.00787*%
%ADD20R,0.00787X0.02362*%
%ADD21R,0.00787X0.03150*%
%ADD22C,0.04724*%
%ADD23R,0.11811X0.08268*%
%ADD24R,0.05118X0.03150*%
%ADD25R,0.05118X0.03150*%
%ADD26R,0.05000X0.03600*%
%ADD27R,0.03600X0.03600*%
%ADD28R,0.03600X0.05000*%
%ADD29R,0.03600X0.03600*%
%ADD30R,0.08898X0.12402*%
%ADD31R,0.05906X0.02400*%
%ADD32R,0.05118X0.01260*%
%ADD33C,0.02756*%
%ADD34C,0.00787*%
%ADD35C,0.02362*%
%ADD36C,0.01969*%
%ADD37R,0.09252X0.06142*%
%ADD38C,0.05118*%
%ADD39R,0.05906X0.05906*%
%ADD40C,0.05906*%
%ADD41C,0.01969*%
%ADD42C,0.02756*%
%ADD43C,0.01000*%
%ADD44C,0.00600*%
%ADD45C,0.00984*%
%ADD46C,0.00500*%
%ADD47C,0.00709*%
%ADD48C,0.00591*%
%ADD49C,0.01200*%
%ADD50C,0.00492*%
%ADD51R,0.08674X0.08674*%
%ADD52R,0.07887X0.07887*%
%ADD53R,0.04737X0.02375*%
%ADD54R,0.04737X0.03950*%
%ADD55R,0.03950X0.04737*%
%ADD56R,0.04737X0.05524*%
%ADD57R,0.05524X0.04737*%
%ADD58R,0.05918X0.05918*%
%ADD59R,0.03162X0.01587*%
%ADD60R,0.03950X0.01587*%
%ADD61R,0.01587X0.03162*%
%ADD62R,0.01587X0.03950*%
%ADD63C,0.05524*%
%ADD64R,0.12611X0.09068*%
%ADD65R,0.05918X0.03950*%
%ADD66R,0.05918X0.03950*%
%ADD67R,0.05800X0.04400*%
%ADD68R,0.04400X0.04400*%
%ADD69R,0.04400X0.05800*%
%ADD70R,0.04400X0.04400*%
%ADD71R,0.09698X0.13202*%
%ADD72R,0.06706X0.03200*%
%ADD73R,0.05918X0.02060*%
%ADD74C,0.05918*%
%ADD75R,0.06706X0.06706*%
%ADD76C,0.06706*%
%ADD77C,0.02769*%
%ADD78C,0.03556*%
D51*
X364253Y-82130D02*
D03*
X344568D02*
D03*
X364253Y-55358D02*
D03*
X344568D02*
D03*
D52*
X340631Y-65988D02*
D03*
D53*
X319727Y-17845D02*
D03*
Y-25326D02*
D03*
Y-21586D02*
D03*
X307522D02*
D03*
Y-25326D02*
D03*
Y-17845D02*
D03*
X149603Y-18290D02*
D03*
Y-25770D02*
D03*
X137399Y-22030D02*
D03*
Y-25770D02*
D03*
Y-18290D02*
D03*
D54*
X336368Y-38366D02*
D03*
Y-32067D02*
D03*
X251866Y-33427D02*
D03*
Y-26734D02*
D03*
X259496Y-33030D02*
D03*
Y-26731D02*
D03*
X267244Y-33031D02*
D03*
Y-26732D02*
D03*
X259979Y-15376D02*
D03*
Y-8683D02*
D03*
X189562Y-20833D02*
D03*
Y-27132D02*
D03*
X197182Y-20833D02*
D03*
Y-27132D02*
D03*
X103640Y-24410D02*
D03*
Y-30710D02*
D03*
X113055Y-8366D02*
D03*
Y-14665D02*
D03*
X121105Y-8446D02*
D03*
Y-14745D02*
D03*
X128995Y-25820D02*
D03*
Y-19520D02*
D03*
X239260Y-28130D02*
D03*
Y-21830D02*
D03*
X344724Y-38366D02*
D03*
Y-32067D02*
D03*
X344180Y-97160D02*
D03*
Y-90860D02*
D03*
X351953Y-90894D02*
D03*
Y-97193D02*
D03*
X326944Y-17879D02*
D03*
Y-24572D02*
D03*
D55*
X282719Y-24570D02*
D03*
X276026D02*
D03*
X80257Y-31961D02*
D03*
X73564D02*
D03*
X143776Y-32980D02*
D03*
X137477D02*
D03*
X300810Y-24910D02*
D03*
X294510D02*
D03*
X359958Y-46110D02*
D03*
X353658D02*
D03*
D56*
X276013Y-33014D02*
D03*
X283888D02*
D03*
X72366Y-22970D02*
D03*
X80240D02*
D03*
X196588Y-12180D02*
D03*
X188714D02*
D03*
X207477Y-36830D02*
D03*
X199603D02*
D03*
D57*
X251329Y-7493D02*
D03*
Y-15367D02*
D03*
D58*
X170118Y-24764D02*
D03*
D59*
X176417Y-21614D02*
D03*
Y-27913D02*
D03*
X163819D02*
D03*
Y-21614D02*
D03*
D60*
X176024Y-23189D02*
D03*
Y-24764D02*
D03*
Y-26339D02*
D03*
X164213D02*
D03*
Y-24764D02*
D03*
Y-23189D02*
D03*
D61*
X173268Y-31063D02*
D03*
X166969D02*
D03*
Y-18465D02*
D03*
X173268D02*
D03*
D62*
X171693Y-30669D02*
D03*
X170118D02*
D03*
X168543D02*
D03*
Y-18858D02*
D03*
X170118D02*
D03*
X171693D02*
D03*
D63*
X176674Y-38010D02*
D03*
X176250Y-4250D02*
D03*
X184434Y-38010D02*
D03*
X191665Y-4250D02*
D03*
X183958D02*
D03*
X168543D02*
D03*
X160835D02*
D03*
D64*
X47269Y-28364D02*
D03*
Y-72656D02*
D03*
D65*
X37230Y-43325D02*
D03*
Y-38404D02*
D03*
Y-48246D02*
D03*
Y-53167D02*
D03*
Y-58089D02*
D03*
Y-63010D02*
D03*
D66*
X63297Y-33421D02*
D03*
Y-25153D02*
D03*
D67*
X95417Y-28192D02*
D03*
X276014Y-11678D02*
D03*
X360040Y-35588D02*
D03*
D68*
X87417Y-24392D02*
D03*
Y-31892D02*
D03*
X268014Y-7878D02*
D03*
Y-15378D02*
D03*
X352040Y-31788D02*
D03*
Y-39288D02*
D03*
D69*
X117308Y-30483D02*
D03*
D70*
X121108Y-22483D02*
D03*
X113608D02*
D03*
D71*
X218701Y-19606D02*
D03*
D72*
X229951Y-27106D02*
D03*
Y-22106D02*
D03*
Y-17106D02*
D03*
Y-12106D02*
D03*
X207451D02*
D03*
Y-17106D02*
D03*
Y-22106D02*
D03*
Y-27106D02*
D03*
D73*
X301361Y-32337D02*
D03*
Y-34896D02*
D03*
Y-37455D02*
D03*
X323999Y-32337D02*
D03*
Y-34896D02*
D03*
Y-37455D02*
D03*
X301361Y-40014D02*
D03*
X323999D02*
D03*
D74*
X367403Y-68744D02*
D03*
X349687D02*
D03*
D75*
X319950Y-6610D02*
D03*
X80510Y-7230D02*
D03*
D76*
X309950Y-6610D02*
D03*
X70510Y-7230D02*
D03*
D77*
X31636Y-53167D02*
D03*
X29077Y-58089D02*
D03*
X31833Y-63010D02*
D03*
X30022Y-38404D02*
D03*
X178661Y-16732D02*
D03*
X181811Y-17087D02*
D03*
X176674Y-38010D02*
D03*
X184370Y-38228D02*
D03*
X163819Y-32208D02*
D03*
X173071Y-15079D02*
D03*
X171696Y-36811D02*
D03*
X159006Y-21614D02*
D03*
X161493Y-35007D02*
D03*
X315838Y-21586D02*
D03*
X176299Y-13465D02*
D03*
X189562Y-17126D02*
D03*
X355866Y-83465D02*
D03*
X339528Y-42480D02*
D03*
X349968Y-46110D02*
D03*
X216850Y-15512D02*
D03*
Y-18543D02*
D03*
X220945Y-15512D02*
D03*
X216850Y-21575D02*
D03*
X146811Y-4961D02*
D03*
X134077Y-18290D02*
D03*
X30197Y-45748D02*
D03*
X43425Y-45197D02*
D03*
X220945Y-18543D02*
D03*
Y-21575D02*
D03*
X155669Y-19961D02*
D03*
X156296Y-27133D02*
D03*
X161965Y-15951D02*
D03*
X256378Y-3032D02*
D03*
X351181Y-54213D02*
D03*
X255906Y-31772D02*
D03*
X250827Y-31653D02*
D03*
X233583Y-31378D02*
D03*
X181968Y-20551D02*
D03*
X170984Y-11417D02*
D03*
X186378D02*
D03*
X267835Y-3110D02*
D03*
X268307Y-10630D02*
D03*
X255591Y-10905D02*
D03*
X290945Y-24370D02*
D03*
X354921Y-39173D02*
D03*
X338150Y-82402D02*
D03*
X31417Y-31339D02*
D03*
X339016Y-95000D02*
D03*
X24449Y-18898D02*
D03*
X110000Y-20945D02*
D03*
X31417Y-72913D02*
D03*
X68583Y-32205D02*
D03*
X86457Y-19764D02*
D03*
X72165Y-17362D02*
D03*
X56811Y-32008D02*
D03*
X57047Y-59252D02*
D03*
X126772Y-15551D02*
D03*
X132992Y-4567D02*
D03*
X88150Y-7520D02*
D03*
X108583Y-6260D02*
D03*
D78*
X267992Y-19961D02*
D03*
X239469Y-36830D02*
D03*
X331044D02*
D03*
X108741Y-30710D02*
D03*
X236575Y-3071D02*
D03*
X276024Y-6890D02*
D03*
X251850Y-24528D02*
D03*
X185000D02*
D03*
X145416Y-18290D02*
D03*
X160143Y-3558D02*
D03*
X196653Y-6890D02*
D03*
M02*
