%FSLAX25Y25*%
%MOIN*%
G70*
G01*
G75*
%ADD10R,0.07874X0.07874*%
%ADD11R,0.07087X0.07087*%
%ADD12R,0.03937X0.01575*%
%ADD13R,0.03937X0.03150*%
%ADD14R,0.03150X0.03937*%
%ADD15R,0.03937X0.04724*%
%ADD16R,0.04724X0.03937*%
%ADD17R,0.05118X0.05118*%
%ADD18R,0.02362X0.00787*%
%ADD19R,0.03150X0.00787*%
%ADD20R,0.00787X0.02362*%
%ADD21R,0.00787X0.03150*%
%ADD22C,0.04724*%
%ADD23R,0.11811X0.08268*%
%ADD24R,0.05118X0.03150*%
%ADD25R,0.05118X0.03150*%
%ADD26R,0.05000X0.03600*%
%ADD27R,0.03600X0.03600*%
%ADD28R,0.03600X0.05000*%
%ADD29R,0.03600X0.03600*%
%ADD30R,0.08898X0.12402*%
%ADD31R,0.05906X0.02400*%
%ADD32R,0.05118X0.01260*%
%ADD33C,0.02756*%
%ADD34C,0.00787*%
%ADD35C,0.02362*%
%ADD36C,0.01969*%
%ADD37R,0.09252X0.06142*%
%ADD38C,0.05118*%
%ADD39R,0.05906X0.05906*%
%ADD40C,0.05906*%
%ADD41C,0.01969*%
%ADD42C,0.02756*%
D10*
X364253Y-82130D02*
D03*
X344568D02*
D03*
X364253Y-55358D02*
D03*
X344568D02*
D03*
D11*
X340631Y-65988D02*
D03*
D12*
X319727Y-17845D02*
D03*
Y-25326D02*
D03*
Y-21586D02*
D03*
X307522D02*
D03*
Y-25326D02*
D03*
Y-17845D02*
D03*
X149603Y-18290D02*
D03*
Y-25770D02*
D03*
X137399Y-22030D02*
D03*
Y-25770D02*
D03*
Y-18290D02*
D03*
D13*
X336368Y-38366D02*
D03*
Y-32067D02*
D03*
X251866Y-33427D02*
D03*
Y-26734D02*
D03*
X259496Y-33030D02*
D03*
Y-26731D02*
D03*
X267244Y-33031D02*
D03*
Y-26732D02*
D03*
X259979Y-15376D02*
D03*
Y-8683D02*
D03*
X189562Y-20833D02*
D03*
Y-27132D02*
D03*
X197182Y-20833D02*
D03*
Y-27132D02*
D03*
X103640Y-24410D02*
D03*
Y-30710D02*
D03*
X113055Y-8366D02*
D03*
Y-14665D02*
D03*
X121105Y-8446D02*
D03*
Y-14745D02*
D03*
X128995Y-25820D02*
D03*
Y-19520D02*
D03*
X239260Y-28130D02*
D03*
Y-21830D02*
D03*
X344724Y-38366D02*
D03*
Y-32067D02*
D03*
X344180Y-97160D02*
D03*
Y-90860D02*
D03*
X351953Y-90894D02*
D03*
Y-97193D02*
D03*
X326944Y-17879D02*
D03*
Y-24572D02*
D03*
D14*
X282719Y-24570D02*
D03*
X276026D02*
D03*
X80257Y-31961D02*
D03*
X73564D02*
D03*
X143776Y-32980D02*
D03*
X137477D02*
D03*
X300810Y-24910D02*
D03*
X294510D02*
D03*
X359958Y-46110D02*
D03*
X353658D02*
D03*
D15*
X276013Y-33014D02*
D03*
X283888D02*
D03*
X72366Y-22970D02*
D03*
X80240D02*
D03*
X196588Y-12180D02*
D03*
X188714D02*
D03*
X207477Y-36830D02*
D03*
X199603D02*
D03*
D16*
X251329Y-7493D02*
D03*
Y-15367D02*
D03*
D17*
X170118Y-24764D02*
D03*
D18*
X176417Y-21614D02*
D03*
Y-27913D02*
D03*
X163819D02*
D03*
Y-21614D02*
D03*
D19*
X176024Y-23189D02*
D03*
Y-24764D02*
D03*
Y-26339D02*
D03*
X164213D02*
D03*
Y-24764D02*
D03*
Y-23189D02*
D03*
D20*
X173268Y-31063D02*
D03*
X166969D02*
D03*
Y-18465D02*
D03*
X173268D02*
D03*
D21*
X171693Y-30669D02*
D03*
X170118D02*
D03*
X168543D02*
D03*
Y-18858D02*
D03*
X170118D02*
D03*
X171693D02*
D03*
D22*
X176674Y-38010D02*
D03*
X176250Y-4250D02*
D03*
X184434Y-38010D02*
D03*
X191665Y-4250D02*
D03*
X183958D02*
D03*
X168543D02*
D03*
X160835D02*
D03*
D23*
X47269Y-28364D02*
D03*
Y-72656D02*
D03*
D24*
X37230Y-43325D02*
D03*
Y-38404D02*
D03*
Y-48246D02*
D03*
Y-53167D02*
D03*
Y-58089D02*
D03*
Y-63010D02*
D03*
D25*
X63297Y-33421D02*
D03*
Y-25153D02*
D03*
D26*
X95417Y-28192D02*
D03*
X276014Y-11678D02*
D03*
X360040Y-35588D02*
D03*
D27*
X87417Y-24392D02*
D03*
Y-31892D02*
D03*
X268014Y-7878D02*
D03*
Y-15378D02*
D03*
X352040Y-31788D02*
D03*
Y-39288D02*
D03*
D28*
X117308Y-30483D02*
D03*
D29*
X121108Y-22483D02*
D03*
X113608D02*
D03*
D30*
X218701Y-19606D02*
D03*
D31*
X229951Y-27106D02*
D03*
Y-22106D02*
D03*
Y-17106D02*
D03*
Y-12106D02*
D03*
X207451D02*
D03*
Y-17106D02*
D03*
Y-22106D02*
D03*
Y-27106D02*
D03*
D32*
X301361Y-32337D02*
D03*
Y-34896D02*
D03*
Y-37455D02*
D03*
X323999Y-32337D02*
D03*
Y-34896D02*
D03*
Y-37455D02*
D03*
X301361Y-40014D02*
D03*
X323999D02*
D03*
D38*
X367403Y-68744D02*
D03*
X349687D02*
D03*
D39*
X319950Y-6610D02*
D03*
X80510Y-7230D02*
D03*
D40*
X309950Y-6610D02*
D03*
X70510Y-7230D02*
D03*
M02*
