M48
;Layer_Color=9474304
;FILE_FORMAT=2:5
INCH,LZ
;TYPE=PLATED
T1F00S00C0.01181
T2F00S00C0.01575
T3F00S00C0.03543
T4F00S00C0.05118
%
T01
X0031417Y-0072913
X0031833Y-006301
X0029077Y-0058089
X0031636Y-0053167
X0030197Y-0045748
X0030022Y-0038404
X0031417Y-0031339
X0024449Y-0018898
X0043425Y-0045197
X0056811Y-0032008
X0068583Y-0032205
X0072165Y-0017362
X0086457Y-0019764
X0057047Y-0059252
X008815Y-000752
X0108583Y-000626
X011Y-0020945
X0126772Y-0015551
X0134077Y-001829
X0132992Y-0004567
X0146811Y-0004961
X0155669Y-0019961
X0159006Y-0021614
X0156296Y-0027133
X0163819Y-0032208
X0161493Y-0035007
X0171696Y-0036811
X0176674Y-003801
X018437Y-0038228
X0181968Y-0020551
X0181811Y-0017087
X0178661Y-0016732
X0176299Y-0013465
X0173071Y-0015079
X0170984Y-0011417
X0171414Y-0023511
Y-002603
X0168776
Y-0023471
X0161965Y-0015951
X0189562Y-0017126
X0186378Y-0011417
X021685Y-0015512
Y-0018543
Y-0021575
X0220945
Y-0018543
Y-0015512
X0233583Y-0031378
X0250827Y-0031653
X0255906Y-0031772
X0255591Y-0010905
X0256378Y-0003032
X0267835Y-000311
X0268307Y-001063
X0290945Y-002437
X0315838Y-0021586
X0339528Y-004248
X0349968Y-004611
X0351181Y-0054213
X0354921Y-0039173
X0355866Y-0083465
X033815Y-0082402
X0339016Y-0095
T02
X0108741Y-003071
X0145416Y-001829
X0160143Y-0003558
X0196653Y-000689
X0185Y-0024528
X0239469Y-003683
X0236575Y-0003071
X025185Y-0024528
X0267992Y-0019961
X0276024Y-000689
X0331044Y-003683
T03
X007051Y-000723
X008051
X030995Y-000661
X031995
T04
X0349687Y-0068744
X0367403
M30
