%FSLAX25Y25*%
%MOIN*%
G70*
G01*
G75*
G04 Layer_Physical_Order=1*
G04 Layer_Color=255*
%ADD10R,0.07874X0.07874*%
%ADD11R,0.07087X0.07087*%
%ADD12R,0.03937X0.01575*%
%ADD13R,0.03937X0.03150*%
%ADD14R,0.03150X0.03937*%
%ADD15R,0.03937X0.04724*%
%ADD16R,0.04724X0.03937*%
%ADD17R,0.05118X0.05118*%
%ADD18R,0.02362X0.00787*%
%ADD19R,0.03150X0.00787*%
%ADD20R,0.00787X0.02362*%
%ADD21R,0.00787X0.03150*%
%ADD22C,0.04724*%
%ADD23R,0.11811X0.08268*%
%ADD24R,0.05118X0.03150*%
%ADD25R,0.05118X0.03150*%
%ADD26R,0.05000X0.03600*%
%ADD27R,0.03600X0.03600*%
%ADD28R,0.03600X0.05000*%
%ADD29R,0.03600X0.03600*%
%ADD30R,0.08898X0.12402*%
%ADD31R,0.05906X0.02400*%
%ADD32R,0.05118X0.01260*%
%ADD33C,0.02756*%
%ADD34C,0.00787*%
%ADD35C,0.02362*%
%ADD36C,0.01969*%
%ADD37R,0.09252X0.06142*%
%ADD38C,0.05118*%
%ADD39R,0.05906X0.05906*%
%ADD40C,0.05906*%
%ADD41C,0.01969*%
%ADD42C,0.02756*%
G36*
X329006Y-8858D02*
X328986D01*
X329152Y-11396D01*
X329648Y-13890D01*
X330466Y-16297D01*
X330851Y-17079D01*
X330445Y-17370D01*
X329535Y-16460D01*
X329503Y-16439D01*
Y-15714D01*
X324385D01*
Y-15872D01*
X321957D01*
Y-10153D01*
X323493D01*
Y-3067D01*
X316407D01*
Y-10153D01*
X317943D01*
Y-16468D01*
X317168D01*
Y-19223D01*
X318481D01*
X318531Y-19298D01*
X319176Y-19729D01*
X319030Y-20208D01*
X317168D01*
Y-20208D01*
X316610Y-20208D01*
X316452Y-20102D01*
X315838Y-19980D01*
X315223Y-20102D01*
X315013Y-20243D01*
X314529Y-20119D01*
X314508Y-20079D01*
X314508Y-20079D01*
X314508D01*
Y-20079D01*
X314508D01*
X314508Y-20079D01*
X314431Y-19695D01*
X314213Y-19369D01*
X311980Y-17136D01*
X311655Y-16918D01*
X311271Y-16842D01*
X310081D01*
Y-16468D01*
X304963D01*
Y-19223D01*
X310081D01*
Y-18849D01*
X310855D01*
X312500Y-20494D01*
Y-27559D01*
X312500Y-27559D01*
X312500D01*
X312577Y-27943D01*
X312794Y-28269D01*
X317572Y-33047D01*
X317898Y-33264D01*
X317962Y-33277D01*
X318282Y-33341D01*
X320849D01*
X320849Y-33558D01*
X320849D01*
X320849Y-33676D01*
X320849D01*
Y-35991D01*
X320788Y-36299D01*
X320849Y-36607D01*
Y-38440D01*
X320849Y-38440D01*
X320849D01*
X320849Y-38676D01*
Y-38794D01*
X320849D01*
X320849Y-39011D01*
X304511D01*
Y-38794D01*
X298212D01*
Y-41235D01*
X304511D01*
Y-41018D01*
X320849D01*
Y-41235D01*
X327149D01*
Y-39029D01*
X327149Y-39029D01*
D01*
D01*
X327149Y-38794D01*
Y-38784D01*
Y-38735D01*
X327149Y-38676D01*
X327149Y-38440D01*
X327149Y-38440D01*
X327149D01*
Y-38192D01*
X327343Y-38153D01*
X327994Y-37718D01*
X328636Y-37076D01*
X329115Y-37221D01*
X329190Y-37598D01*
X329625Y-38249D01*
X331161Y-39785D01*
X331812Y-40220D01*
X332580Y-40373D01*
X333809D01*
Y-40531D01*
X334361D01*
Y-61725D01*
X334514Y-62493D01*
X334949Y-63144D01*
X336497Y-64693D01*
Y-70122D01*
X344765D01*
Y-61854D01*
X339336D01*
X338375Y-60894D01*
Y-44135D01*
X338816Y-43899D01*
X338913Y-43964D01*
X339528Y-44086D01*
X340142Y-43964D01*
X340663Y-43616D01*
X340751Y-43484D01*
X351139D01*
X351297Y-43641D01*
X351105Y-44103D01*
X349968D01*
X349200Y-44256D01*
X348549Y-44691D01*
X348114Y-45342D01*
X347961Y-46110D01*
X348114Y-46878D01*
X348549Y-47529D01*
X349200Y-47964D01*
X349968Y-48117D01*
X351493D01*
Y-48669D01*
X355824D01*
Y-44049D01*
X356286Y-43857D01*
X357792Y-45364D01*
Y-48669D01*
X362123D01*
Y-43551D01*
X361044D01*
Y-37979D01*
X363131D01*
Y-33198D01*
X356950D01*
Y-37979D01*
X359037D01*
Y-43117D01*
X358575Y-43308D01*
X357038Y-41771D01*
X356712Y-41553D01*
X356328Y-41477D01*
X340751D01*
X340663Y-41345D01*
X340142Y-40997D01*
X339528Y-40875D01*
X339362Y-40907D01*
X338947Y-40630D01*
X338927Y-40531D01*
X338927D01*
X338927Y-40373D01*
X342164D01*
Y-40531D01*
X347283D01*
Y-36200D01*
X342164D01*
Y-36359D01*
X338927D01*
Y-36200D01*
X333809D01*
Y-36359D01*
X333411D01*
X332463Y-35411D01*
X331812Y-34976D01*
X331044Y-34823D01*
X330990Y-34722D01*
X332876Y-32836D01*
X333311Y-32185D01*
X333464Y-31417D01*
X333464Y-31417D01*
X333464Y-31417D01*
Y-31417D01*
Y-21927D01*
X333932Y-21751D01*
X334680Y-22604D01*
X336592Y-24281D01*
X338706Y-25693D01*
X340986Y-26818D01*
X343394Y-27635D01*
X345888Y-28131D01*
X348425Y-28297D01*
Y-28277D01*
X364243D01*
Y-44291D01*
X364327Y-44717D01*
X364568Y-45078D01*
X364929Y-45319D01*
X365354Y-45403D01*
X376054D01*
Y-86098D01*
Y-86487D01*
X368781D01*
Y-77602D01*
X359726D01*
Y-86487D01*
X357481D01*
X357256Y-86531D01*
X356870Y-86214D01*
Y-84688D01*
X357001Y-84600D01*
X357350Y-84079D01*
X357472Y-83465D01*
X357350Y-82850D01*
X357001Y-82329D01*
X356481Y-81981D01*
X355866Y-81859D01*
X355252Y-81981D01*
X354731Y-82329D01*
X354383Y-82850D01*
X354260Y-83465D01*
X354383Y-84079D01*
X354731Y-84600D01*
X354863Y-84688D01*
Y-88729D01*
X354863D01*
X354512D01*
X354509Y-88729D01*
X354509Y-88729D01*
Y-88729D01*
X349394D01*
Y-89857D01*
X346739D01*
Y-88695D01*
X341621D01*
Y-93026D01*
X346739D01*
Y-91864D01*
X349394D01*
Y-93059D01*
X354014D01*
X354205Y-93521D01*
X352699Y-95028D01*
X349394D01*
Y-99359D01*
X354512D01*
Y-96053D01*
X355907Y-94659D01*
X356369Y-94850D01*
Y-100069D01*
X341891D01*
X332595Y-97358D01*
X332438Y-97344D01*
X332284Y-97313D01*
X332214D01*
Y-44291D01*
X332130Y-43866D01*
X331889Y-43505D01*
X331528Y-43264D01*
X331102Y-43179D01*
X163381D01*
X163190Y-42717D01*
X169729Y-36179D01*
X170169Y-36415D01*
X170091Y-36811D01*
X170213Y-37426D01*
X170561Y-37946D01*
X171082Y-38295D01*
X171696Y-38417D01*
X172311Y-38295D01*
X172832Y-37946D01*
X173180Y-37426D01*
X173302Y-36811D01*
X173180Y-36197D01*
X172832Y-35676D01*
X172700Y-35588D01*
Y-32835D01*
X174252D01*
Y-30669D01*
X176024D01*
Y-29233D01*
X176410Y-28916D01*
X176417Y-28917D01*
X181614D01*
X181998Y-28841D01*
X182324Y-28623D01*
X184510Y-26437D01*
X185000Y-26535D01*
X185768Y-26382D01*
X186419Y-25947D01*
X186524Y-25790D01*
X187003Y-25935D01*
Y-29298D01*
X192121D01*
Y-29113D01*
X194623D01*
Y-29298D01*
X199741D01*
Y-29113D01*
X205444D01*
Y-33877D01*
X204918D01*
Y-39783D01*
X210036D01*
Y-38837D01*
X239469D01*
X240237Y-38684D01*
X240888Y-38249D01*
X247404Y-31734D01*
X247838Y-31083D01*
X247864Y-30956D01*
X247991Y-30315D01*
Y-18032D01*
X248014Y-17998D01*
X248376Y-17926D01*
X248376Y-17926D01*
X248376Y-17926D01*
X254282D01*
Y-17385D01*
X257420D01*
Y-17542D01*
X262538D01*
Y-17385D01*
X265623D01*
Y-17769D01*
X265985D01*
Y-19961D01*
X265985Y-19961D01*
X265985D01*
X266138Y-20729D01*
X266573Y-21380D01*
X267224Y-21815D01*
X267992Y-21968D01*
X268760Y-21815D01*
X269411Y-21380D01*
X269846Y-20729D01*
X269999Y-19961D01*
Y-17769D01*
X270404D01*
Y-12988D01*
X265623D01*
Y-13371D01*
X262538D01*
Y-13211D01*
X257420D01*
Y-13371D01*
X254282D01*
Y-12808D01*
X249032D01*
X238232Y-2008D01*
X237994Y-1652D01*
X237403Y-1257D01*
Y-1257D01*
X237403D01*
X237343Y-1217D01*
Y-1217D01*
X237353Y-1112D01*
X329006D01*
Y-8858D01*
D02*
G37*
G36*
X159513Y-1602D02*
X159346Y-1671D01*
X158827Y-2070D01*
X158723Y-2139D01*
X158654Y-2242D01*
X158256Y-2761D01*
X157958Y-3480D01*
X157857Y-4250D01*
X157958Y-5021D01*
X158256Y-5740D01*
X158729Y-6357D01*
X159346Y-6830D01*
X160064Y-7127D01*
X160835Y-7229D01*
X160959Y-7213D01*
X164137Y-10391D01*
X164788Y-10826D01*
X165556Y-10978D01*
X165578Y-10974D01*
X165965Y-11291D01*
Y-18465D01*
X165966Y-18472D01*
X165649Y-18858D01*
X164213D01*
Y-20295D01*
X163826Y-20612D01*
X163819Y-20611D01*
X160229D01*
X160141Y-20479D01*
X159620Y-20131D01*
X159006Y-20008D01*
X158391Y-20131D01*
X157870Y-20479D01*
X157522Y-21000D01*
X157400Y-21614D01*
X157522Y-22229D01*
X157870Y-22749D01*
X158391Y-23098D01*
X159006Y-23220D01*
X159620Y-23098D01*
X160141Y-22749D01*
X160229Y-22618D01*
X162047D01*
Y-23760D01*
X150610D01*
X150289Y-23824D01*
X150225Y-23837D01*
X149900Y-24054D01*
X149562Y-24392D01*
X147044D01*
Y-24767D01*
X145805D01*
X145421Y-24843D01*
X145095Y-25060D01*
X143067Y-27089D01*
X142849Y-27415D01*
X142773Y-27799D01*
X142773Y-27799D01*
X142773D01*
X142773Y-27799D01*
X142773D01*
Y-30421D01*
X141611D01*
Y-35539D01*
D01*
Y-35539D01*
X141500Y-35650D01*
X139642D01*
Y-35650D01*
Y-35539D01*
X139642Y-35296D01*
X139642Y-35296D01*
X139642D01*
Y-30421D01*
X138480D01*
Y-27148D01*
X139957D01*
Y-24392D01*
X134839D01*
Y-24767D01*
X131554D01*
Y-23654D01*
X126436D01*
Y-27985D01*
X131554D01*
Y-26774D01*
X134839D01*
Y-27148D01*
X136474D01*
Y-30421D01*
X135312D01*
Y-35296D01*
X135312Y-35296D01*
X135312D01*
X135312Y-35539D01*
X135201Y-35650D01*
X38980D01*
X38596Y-35726D01*
X38271Y-35944D01*
X37976Y-36238D01*
X34080D01*
Y-37400D01*
X31245D01*
X31157Y-37268D01*
X30636Y-36920D01*
X30022Y-36798D01*
X29407Y-36920D01*
X28886Y-37268D01*
X28538Y-37789D01*
X28416Y-38404D01*
X28538Y-39018D01*
X28886Y-39539D01*
X29407Y-39887D01*
X30022Y-40009D01*
X30636Y-39887D01*
X31157Y-39539D01*
X31245Y-39407D01*
X34080D01*
Y-40569D01*
X40380D01*
Y-37657D01*
X57278D01*
X57470Y-38119D01*
X43425Y-52164D01*
X40380D01*
Y-51002D01*
X34080D01*
Y-52164D01*
X32859D01*
X32771Y-52032D01*
X32250Y-51684D01*
X31636Y-51562D01*
X31021Y-51684D01*
X30500Y-52032D01*
X30152Y-52553D01*
X30030Y-53167D01*
X30152Y-53782D01*
X30500Y-54303D01*
X31021Y-54651D01*
X31636Y-54773D01*
X32250Y-54651D01*
X32771Y-54303D01*
X32859Y-54171D01*
X34080D01*
Y-55333D01*
X40380D01*
Y-54171D01*
X43840D01*
X44100Y-54119D01*
X44335Y-54560D01*
X41811Y-57085D01*
X40380D01*
Y-55923D01*
X34080D01*
Y-57085D01*
X30300D01*
X30212Y-56953D01*
X29691Y-56605D01*
X29077Y-56483D01*
X28462Y-56605D01*
X27941Y-56953D01*
X27593Y-57474D01*
X27471Y-58089D01*
X27593Y-58703D01*
X27941Y-59224D01*
X28462Y-59572D01*
X29077Y-59694D01*
X29691Y-59572D01*
X30212Y-59224D01*
X30300Y-59092D01*
X34080D01*
Y-60254D01*
X40380D01*
Y-59092D01*
X42226D01*
X42436Y-59051D01*
X42672Y-59491D01*
X40841Y-61322D01*
X40380Y-61131D01*
Y-60845D01*
X34080D01*
Y-62006D01*
X33056D01*
X32968Y-61875D01*
X32447Y-61527D01*
X31833Y-61404D01*
X31218Y-61527D01*
X30697Y-61875D01*
X30349Y-62396D01*
X30227Y-63010D01*
X30349Y-63625D01*
X30697Y-64145D01*
X31218Y-64493D01*
X31833Y-64616D01*
X32447Y-64493D01*
X32968Y-64145D01*
X33056Y-64013D01*
X34080D01*
Y-65175D01*
X40380D01*
Y-64013D01*
X40573D01*
X40957Y-63937D01*
X41282Y-63720D01*
X60237Y-44765D01*
X60699Y-44956D01*
Y-77235D01*
X53765D01*
Y-67931D01*
X40773D01*
Y-77380D01*
X40773D01*
Y-77537D01*
X39063Y-77877D01*
X36655Y-78694D01*
X34375Y-79819D01*
X32261Y-81231D01*
X30349Y-82908D01*
X28672Y-84820D01*
X27260Y-86934D01*
X26135Y-89214D01*
X25318Y-91622D01*
X24822Y-94116D01*
X24655Y-96654D01*
X24676D01*
X24676Y-96654D01*
Y-97313D01*
X1112D01*
Y-1112D01*
X24676D01*
Y-3346D01*
X24676Y-3347D01*
X24655D01*
X24822Y-5884D01*
X25318Y-8378D01*
X26135Y-10786D01*
X27260Y-13066D01*
X28672Y-15180D01*
X30349Y-17092D01*
X32261Y-18769D01*
X34375Y-20181D01*
X36655Y-21306D01*
X39063Y-22123D01*
X41557Y-22619D01*
X44094Y-22786D01*
X46632Y-22619D01*
X49126Y-22123D01*
X51534Y-21306D01*
X53814Y-20181D01*
X55928Y-18769D01*
X57840Y-17092D01*
X59517Y-15180D01*
X60929Y-13066D01*
X62054Y-10786D01*
X62871Y-8378D01*
X63367Y-5884D01*
X63534Y-3347D01*
X63513D01*
Y-1112D01*
X159415D01*
X159513Y-1602D01*
D02*
G37*
G36*
X229183Y-13961D02*
X229951Y-14113D01*
X239228D01*
X243977Y-18863D01*
Y-29484D01*
X238638Y-34823D01*
X210036D01*
Y-33877D01*
X209458D01*
Y-28897D01*
X210994D01*
Y-28897D01*
X211097D01*
X211451Y-29250D01*
Y-29606D01*
X225951D01*
Y-23897D01*
X226408D01*
Y-23897D01*
X233494D01*
Y-23110D01*
X236701D01*
Y-23996D01*
X241819D01*
Y-19665D01*
X236701D01*
Y-21103D01*
X233494D01*
Y-20316D01*
X226408D01*
Y-20316D01*
X226304D01*
X225951Y-19962D01*
Y-13897D01*
X226408D01*
Y-13897D01*
X229087D01*
X229183Y-13961D01*
D02*
G37*
G36*
X174928Y-1602D02*
X174761Y-1671D01*
X174144Y-2145D01*
X173671Y-2761D01*
X173373Y-3480D01*
X173272Y-4250D01*
X173373Y-5021D01*
X173671Y-5740D01*
X174144Y-6357D01*
X174761Y-6830D01*
X175296Y-7051D01*
Y-12241D01*
X175164Y-12329D01*
X174816Y-12850D01*
X174694Y-13465D01*
X174786Y-13928D01*
X174324Y-14119D01*
X174206Y-13943D01*
X173685Y-13595D01*
X173071Y-13473D01*
X172456Y-13595D01*
X171935Y-13943D01*
X171600Y-14445D01*
X171122Y-14300D01*
Y-12699D01*
X171694Y-12127D01*
X171911Y-11801D01*
X171988Y-11417D01*
X171911Y-11033D01*
X171694Y-10708D01*
X171368Y-10490D01*
X170984Y-10414D01*
X170600Y-10490D01*
X170275Y-10708D01*
X170012Y-10970D01*
X169550Y-10779D01*
Y-7029D01*
X170032Y-6830D01*
X170649Y-6357D01*
X171122Y-5740D01*
X171420Y-5021D01*
X171521Y-4250D01*
X171420Y-3480D01*
X171122Y-2761D01*
X170649Y-2145D01*
X170032Y-1671D01*
X169314Y-1374D01*
X168543Y-1272D01*
X168703Y-1112D01*
X174830D01*
X174928Y-1602D01*
D02*
G37*
G36*
X235247Y-1590D02*
X235156Y-1652D01*
X235132Y-1687D01*
X235097Y-1711D01*
X234662Y-2362D01*
X234509Y-3130D01*
X234662Y-3898D01*
X235097Y-4549D01*
X240185Y-9637D01*
X239993Y-10099D01*
X229951D01*
X229183Y-10252D01*
X229087Y-10316D01*
X226408D01*
Y-10316D01*
X226304D01*
X225951Y-9962D01*
Y-9606D01*
X211451D01*
Y-10316D01*
X210994D01*
Y-10316D01*
X207530D01*
X207451Y-10300D01*
X199147D01*
Y-9228D01*
X198661D01*
Y-6890D01*
X198508Y-6122D01*
X198073Y-5471D01*
X197422Y-5035D01*
X196653Y-4883D01*
X195886Y-5035D01*
X195234Y-5471D01*
X194799Y-6122D01*
X194647Y-6890D01*
Y-9228D01*
X194029D01*
Y-15133D01*
X199147D01*
Y-13913D01*
X207451D01*
X207530Y-13897D01*
X210994D01*
Y-13897D01*
X211097D01*
X211451Y-14250D01*
Y-15316D01*
X210994D01*
Y-15316D01*
X203907D01*
Y-16103D01*
X190772D01*
X190697Y-15991D01*
X190176Y-15643D01*
X189562Y-15520D01*
X188947Y-15643D01*
X188426Y-15991D01*
X188078Y-16511D01*
X187956Y-17126D01*
X188078Y-17740D01*
X188403Y-18227D01*
X188219Y-18571D01*
X188155Y-18668D01*
X187003D01*
Y-22999D01*
X192121D01*
Y-18668D01*
X190969D01*
X190904Y-18571D01*
X190720Y-18227D01*
X190798Y-18110D01*
X203907D01*
Y-18897D01*
X210994D01*
Y-18897D01*
X211097D01*
X211451Y-19250D01*
Y-20316D01*
X210994D01*
Y-20316D01*
X203907D01*
Y-21103D01*
X199741D01*
Y-18668D01*
X194623D01*
Y-22999D01*
X198018D01*
X198071Y-23033D01*
X198134Y-23046D01*
X198455Y-23110D01*
X203907D01*
Y-23897D01*
X210994D01*
Y-23897D01*
X211097D01*
X211451Y-24250D01*
Y-25316D01*
X210994D01*
Y-25316D01*
X208314D01*
X208219Y-25252D01*
X207451Y-25099D01*
X199741D01*
Y-24967D01*
X194623D01*
Y-25099D01*
X192121D01*
Y-24967D01*
X187314D01*
X186996Y-24581D01*
X187007Y-24528D01*
X186854Y-23760D01*
X186419Y-23108D01*
X185768Y-22673D01*
X185000Y-22521D01*
X184942Y-22227D01*
X184961Y-22128D01*
X184961Y-22128D01*
X184961Y-22128D01*
Y-22128D01*
Y-11899D01*
X185451Y-11801D01*
X185668Y-12127D01*
X185994Y-12344D01*
X186378Y-12421D01*
X187535D01*
X188004Y-12890D01*
X188330Y-13107D01*
X188714Y-13184D01*
X189098Y-13107D01*
X189423Y-12890D01*
X189641Y-12564D01*
X189717Y-12180D01*
X189641Y-11796D01*
X189423Y-11471D01*
X188660Y-10708D01*
X188335Y-10490D01*
X187951Y-10414D01*
X186378D01*
X185994Y-10490D01*
X185668Y-10708D01*
X185451Y-11033D01*
X184961Y-10936D01*
Y-7031D01*
X185447Y-6830D01*
X186064Y-6357D01*
X186537Y-5740D01*
X186835Y-5021D01*
X186936Y-4250D01*
X186835Y-3480D01*
X186537Y-2761D01*
X186064Y-2145D01*
X185447Y-1671D01*
X184729Y-1374D01*
X183958Y-1272D01*
X184118Y-1112D01*
X235102D01*
X235247Y-1590D01*
D02*
G37*
%LPC*%
G36*
X84053Y-3687D02*
X76967D01*
Y-10773D01*
X79450D01*
Y-20018D01*
X77681D01*
Y-25923D01*
X79450D01*
Y-29402D01*
X78092D01*
Y-34520D01*
X82422D01*
Y-32965D01*
X85026D01*
Y-34282D01*
X89807D01*
Y-29501D01*
X85026D01*
Y-30958D01*
X82422D01*
Y-29402D01*
X81457D01*
Y-25923D01*
X82799D01*
Y-20018D01*
X81457D01*
Y-10773D01*
X84053D01*
Y-3687D01*
D02*
G37*
G36*
X89807Y-22001D02*
X85026D01*
Y-26783D01*
X89807D01*
Y-25455D01*
X92326D01*
Y-25801D01*
X92326D01*
Y-30582D01*
X98507D01*
Y-30199D01*
X100291D01*
X101081Y-30989D01*
Y-32875D01*
X106199D01*
Y-32717D01*
X108741D01*
X109509Y-32564D01*
X110160Y-32129D01*
X110595Y-31478D01*
X110748Y-30710D01*
X110595Y-29941D01*
X110160Y-29290D01*
X109509Y-28855D01*
X108741Y-28703D01*
X106199D01*
Y-28544D01*
X104313D01*
X102542Y-26773D01*
X102601Y-26576D01*
X106199D01*
Y-25455D01*
X108288D01*
X114026Y-31193D01*
X114351Y-31411D01*
X114415Y-31423D01*
X114735Y-31487D01*
X114918D01*
Y-33574D01*
X119699D01*
Y-27393D01*
X114918D01*
Y-28593D01*
X114456Y-28785D01*
X109414Y-23742D01*
X109088Y-23525D01*
X108704Y-23448D01*
X106199D01*
Y-22245D01*
X101081D01*
Y-23448D01*
X89807D01*
Y-22001D01*
D02*
G37*
G36*
X310081Y-23948D02*
X304963D01*
Y-26704D01*
X306519D01*
Y-29188D01*
X304567Y-31140D01*
X304511Y-31117D01*
Y-31117D01*
X304511Y-31117D01*
X298212D01*
Y-33558D01*
X304511D01*
Y-33341D01*
X304789D01*
X305173Y-33264D01*
X305498Y-33047D01*
X308232Y-30314D01*
X308449Y-29988D01*
X308526Y-29604D01*
X308526Y-29604D01*
X308526Y-29604D01*
Y-29604D01*
Y-26704D01*
X310081D01*
Y-23948D01*
D02*
G37*
G36*
X53765Y-23640D02*
X40773D01*
Y-33089D01*
X53765D01*
Y-23640D01*
D02*
G37*
G36*
X284884Y-22011D02*
X280554D01*
Y-27129D01*
X282070D01*
Y-30062D01*
X281329D01*
Y-35967D01*
X286447D01*
Y-30062D01*
X284077D01*
Y-27129D01*
X284884D01*
Y-22011D01*
D02*
G37*
G36*
X367403Y-65170D02*
X366478Y-65292D01*
X365616Y-65649D01*
X364876Y-66217D01*
X364308Y-66957D01*
X363951Y-67819D01*
X363829Y-68744D01*
X363951Y-69669D01*
X364308Y-70531D01*
X364876Y-71271D01*
X365616Y-71839D01*
X366478Y-72196D01*
X367403Y-72318D01*
X368328Y-72196D01*
X369190Y-71839D01*
X369930Y-71271D01*
X370498Y-70531D01*
X370855Y-69669D01*
X370977Y-68744D01*
X370855Y-67819D01*
X370498Y-66957D01*
X369930Y-66217D01*
X369190Y-65649D01*
X368328Y-65292D01*
X367403Y-65170D01*
D02*
G37*
G36*
X349687D02*
X348762Y-65292D01*
X347900Y-65649D01*
X347159Y-66217D01*
X346591Y-66957D01*
X346234Y-67819D01*
X346113Y-68744D01*
X346234Y-69669D01*
X346591Y-70531D01*
X347159Y-71271D01*
X347900Y-71839D01*
X348762Y-72196D01*
X349687Y-72318D01*
X350611Y-72196D01*
X351473Y-71839D01*
X352214Y-71271D01*
X352782Y-70531D01*
X353139Y-69669D01*
X353260Y-68744D01*
X353139Y-67819D01*
X352782Y-66957D01*
X352214Y-66217D01*
X351473Y-65649D01*
X350611Y-65292D01*
X349687Y-65170D01*
D02*
G37*
G36*
X368781Y-50831D02*
X359726D01*
Y-59886D01*
X368781D01*
Y-50831D01*
D02*
G37*
G36*
X184434Y-35032D02*
X183664Y-35133D01*
X182945Y-35431D01*
X182328Y-35904D01*
X181855Y-36521D01*
X181558Y-37239D01*
X181456Y-38010D01*
X181558Y-38781D01*
X181855Y-39499D01*
X182328Y-40116D01*
X182945Y-40589D01*
X183664Y-40887D01*
X184434Y-40988D01*
X185205Y-40887D01*
X185924Y-40589D01*
X186540Y-40116D01*
X187014Y-39499D01*
X187311Y-38781D01*
X187413Y-38010D01*
X187311Y-37239D01*
X187014Y-36521D01*
X186540Y-35904D01*
X185924Y-35431D01*
X185205Y-35133D01*
X184434Y-35032D01*
D02*
G37*
G36*
X176674D02*
X175904Y-35133D01*
X175185Y-35431D01*
X174569Y-35904D01*
X174095Y-36521D01*
X173798Y-37239D01*
X173696Y-38010D01*
X173798Y-38781D01*
X174095Y-39499D01*
X174569Y-40116D01*
X175185Y-40589D01*
X175904Y-40887D01*
X176674Y-40988D01*
X177445Y-40887D01*
X178164Y-40589D01*
X178780Y-40116D01*
X179254Y-39499D01*
X179551Y-38781D01*
X179653Y-38010D01*
X179551Y-37239D01*
X179254Y-36521D01*
X178780Y-35904D01*
X178164Y-35431D01*
X177445Y-35133D01*
X176674Y-35032D01*
D02*
G37*
G36*
X354431Y-29398D02*
X349650D01*
Y-31063D01*
X347283D01*
Y-29901D01*
X342164D01*
Y-34232D01*
X347283D01*
Y-33070D01*
X349650D01*
Y-34179D01*
X354431D01*
Y-29398D01*
D02*
G37*
G36*
X98418Y-6344D02*
X97003Y-6530D01*
X95684Y-7076D01*
X94551Y-7945D01*
X93682Y-9078D01*
X93136Y-10396D01*
X92950Y-11812D01*
X93136Y-13227D01*
X93682Y-14546D01*
X94551Y-15678D01*
X95684Y-16547D01*
X97003Y-17093D01*
X98418Y-17280D01*
X99833Y-17093D01*
X101152Y-16547D01*
X102285Y-15678D01*
X103153Y-14546D01*
X103700Y-13227D01*
X103886Y-11812D01*
X103700Y-10396D01*
X103153Y-9078D01*
X102285Y-7945D01*
X101152Y-7076D01*
X99833Y-6530D01*
X98418Y-6344D01*
D02*
G37*
G36*
X70510Y-3656D02*
X69585Y-3778D01*
X68723Y-4135D01*
X67983Y-4703D01*
X67415Y-5443D01*
X67058Y-6305D01*
X66936Y-7230D01*
X67058Y-8155D01*
X67382Y-8938D01*
X62588Y-13733D01*
X62370Y-14059D01*
X62294Y-14443D01*
Y-22988D01*
X60148D01*
Y-27318D01*
X66447D01*
Y-22988D01*
X64301D01*
Y-14858D01*
X68802Y-10358D01*
X69585Y-10682D01*
X70510Y-10804D01*
X71435Y-10682D01*
X72297Y-10325D01*
X73037Y-9757D01*
X73605Y-9017D01*
X73962Y-8155D01*
X74084Y-7230D01*
X73962Y-6305D01*
X73605Y-5443D01*
X73037Y-4703D01*
X72297Y-4135D01*
X71435Y-3778D01*
X70510Y-3656D01*
D02*
G37*
G36*
X150974Y-3957D02*
X146811D01*
X146427Y-4033D01*
X146101Y-4251D01*
X145884Y-4577D01*
X145808Y-4961D01*
X145884Y-5345D01*
X146101Y-5670D01*
X146427Y-5888D01*
X146811Y-5964D01*
X150559D01*
X161256Y-16661D01*
X161581Y-16879D01*
X161965Y-16955D01*
X162349Y-16879D01*
X162675Y-16661D01*
X162892Y-16335D01*
X162969Y-15951D01*
X162892Y-15567D01*
X162675Y-15242D01*
X151684Y-4251D01*
X151358Y-4033D01*
X150974Y-3957D01*
D02*
G37*
G36*
X123664Y-6281D02*
X118546D01*
Y-10611D01*
X123664D01*
Y-9449D01*
X143739D01*
X150204Y-15914D01*
X149968Y-16355D01*
X149603Y-16283D01*
X145416D01*
X144648Y-16435D01*
X143997Y-16871D01*
X143561Y-17522D01*
X143409Y-18290D01*
X143561Y-19058D01*
X143997Y-19709D01*
X144648Y-20144D01*
X145416Y-20297D01*
X149603D01*
X150371Y-20144D01*
X151022Y-19709D01*
X151050Y-19668D01*
X152162D01*
Y-18526D01*
X152624Y-18335D01*
X154095Y-19805D01*
X154064Y-19961D01*
X154186Y-20575D01*
X154534Y-21096D01*
X155055Y-21444D01*
X155669Y-21566D01*
X156284Y-21444D01*
X156805Y-21096D01*
X157153Y-20575D01*
X157275Y-19961D01*
X157153Y-19346D01*
X156805Y-18825D01*
X156284Y-18477D01*
X155669Y-18355D01*
X155514Y-18386D01*
X144864Y-7736D01*
X144539Y-7519D01*
X144155Y-7442D01*
X123664D01*
Y-6281D01*
D02*
G37*
G36*
X291332Y-7138D02*
X290122Y-7297D01*
X288995Y-7764D01*
X288027Y-8507D01*
X287284Y-9475D01*
X286817Y-10602D01*
X286658Y-11812D01*
X286817Y-13021D01*
X287284Y-14149D01*
X288027Y-15117D01*
X288995Y-15859D01*
X290122Y-16326D01*
X291332Y-16486D01*
X292541Y-16326D01*
X293668Y-15859D01*
X294636Y-15117D01*
X295379Y-14149D01*
X295846Y-13021D01*
X296005Y-11812D01*
X295846Y-10602D01*
X295379Y-9475D01*
X294636Y-8507D01*
X293668Y-7764D01*
X292541Y-7297D01*
X291332Y-7138D01*
D02*
G37*
G36*
X115614Y-12500D02*
X110496D01*
Y-16830D01*
X115614D01*
Y-15669D01*
X118546D01*
Y-16911D01*
X120105D01*
Y-20093D01*
X118718D01*
Y-24874D01*
X123499D01*
Y-20093D01*
X122112D01*
Y-16911D01*
X123664D01*
Y-12580D01*
X118546D01*
Y-13662D01*
X115614D01*
Y-12500D01*
D02*
G37*
G36*
X251850Y-22521D02*
X251082Y-22673D01*
X250431Y-23108D01*
X249996Y-23760D01*
X249843Y-24528D01*
Y-24569D01*
X249307D01*
Y-28899D01*
X254425D01*
Y-28739D01*
X256937D01*
Y-28896D01*
X262055D01*
Y-28739D01*
X264685D01*
Y-28898D01*
X269803D01*
Y-24567D01*
X264685D01*
Y-24725D01*
X262055D01*
Y-24565D01*
X256937D01*
Y-24725D01*
X254425D01*
Y-24569D01*
X253857D01*
Y-24528D01*
X253705Y-23760D01*
X253270Y-23108D01*
X252619Y-22673D01*
X251850Y-22521D01*
D02*
G37*
G36*
X307159Y-1812D02*
X279095D01*
X278326Y-1965D01*
X277675Y-2400D01*
X274604Y-5471D01*
X274169Y-6122D01*
X274017Y-6890D01*
Y-9288D01*
X272923D01*
Y-14069D01*
X274007D01*
Y-22011D01*
X273861D01*
Y-27129D01*
X274019D01*
Y-30062D01*
X273454D01*
Y-31007D01*
X269803D01*
Y-30866D01*
X264685D01*
Y-35197D01*
X269803D01*
Y-35021D01*
X273454D01*
Y-35967D01*
X278573D01*
Y-30062D01*
X278033D01*
Y-27129D01*
X278191D01*
Y-22011D01*
X278021D01*
Y-14069D01*
X279104D01*
Y-9288D01*
X278031D01*
Y-7721D01*
X279926Y-5826D01*
X306100D01*
X306430Y-6202D01*
X306376Y-6610D01*
X306498Y-7535D01*
X306855Y-8397D01*
X307423Y-9137D01*
X308163Y-9705D01*
X309025Y-10062D01*
X309950Y-10184D01*
X310875Y-10062D01*
X311737Y-9705D01*
X312477Y-9137D01*
X313045Y-8397D01*
X313402Y-7535D01*
X313524Y-6610D01*
X313402Y-5685D01*
X313045Y-4823D01*
X312477Y-4083D01*
X311737Y-3515D01*
X310875Y-3158D01*
X309950Y-3036D01*
X309300Y-3122D01*
X308578Y-2400D01*
X307927Y-1965D01*
X307159Y-1812D01*
D02*
G37*
G36*
X134077Y-16684D02*
X133463Y-16806D01*
X132942Y-17154D01*
X132594Y-17675D01*
X132472Y-18290D01*
X132594Y-18904D01*
X132942Y-19425D01*
X133463Y-19773D01*
X134077Y-19895D01*
X134692Y-19773D01*
X134850Y-19668D01*
X139957D01*
Y-16912D01*
X134850D01*
X134692Y-16806D01*
X134077Y-16684D01*
D02*
G37*
G36*
X310081Y-20208D02*
X304963D01*
Y-20582D01*
X303504D01*
X303120Y-20659D01*
X303012Y-20731D01*
X302794Y-20876D01*
X301320Y-22351D01*
X298644D01*
Y-27469D01*
X302975D01*
Y-23534D01*
X303920Y-22589D01*
X304963D01*
Y-22964D01*
X310081D01*
Y-20208D01*
D02*
G37*
%LPD*%
D10*
X364253Y-82130D02*
D03*
X344568D02*
D03*
X364253Y-55358D02*
D03*
X344568D02*
D03*
D11*
X340631Y-65988D02*
D03*
D12*
X319727Y-17845D02*
D03*
Y-25326D02*
D03*
Y-21586D02*
D03*
X307522D02*
D03*
Y-25326D02*
D03*
Y-17845D02*
D03*
X149603Y-18290D02*
D03*
Y-25770D02*
D03*
X137399Y-22030D02*
D03*
Y-25770D02*
D03*
Y-18290D02*
D03*
D13*
X336368Y-38366D02*
D03*
Y-32067D02*
D03*
X251866Y-33427D02*
D03*
Y-26734D02*
D03*
X259496Y-33030D02*
D03*
Y-26731D02*
D03*
X267244Y-33031D02*
D03*
Y-26732D02*
D03*
X259979Y-15376D02*
D03*
Y-8683D02*
D03*
X189562Y-20833D02*
D03*
Y-27132D02*
D03*
X197182Y-20833D02*
D03*
Y-27132D02*
D03*
X103640Y-24410D02*
D03*
Y-30710D02*
D03*
X113055Y-8366D02*
D03*
Y-14665D02*
D03*
X121105Y-8446D02*
D03*
Y-14745D02*
D03*
X128995Y-25820D02*
D03*
Y-19520D02*
D03*
X239260Y-28130D02*
D03*
Y-21830D02*
D03*
X344724Y-38366D02*
D03*
Y-32067D02*
D03*
X344180Y-97160D02*
D03*
Y-90860D02*
D03*
X351953Y-90894D02*
D03*
Y-97193D02*
D03*
X326944Y-17879D02*
D03*
Y-24572D02*
D03*
D14*
X282719Y-24570D02*
D03*
X276026D02*
D03*
X80257Y-31961D02*
D03*
X73564D02*
D03*
X143776Y-32980D02*
D03*
X137477D02*
D03*
X300810Y-24910D02*
D03*
X294510D02*
D03*
X359958Y-46110D02*
D03*
X353658D02*
D03*
D15*
X276013Y-33014D02*
D03*
X283888D02*
D03*
X72366Y-22970D02*
D03*
X80240D02*
D03*
X196588Y-12180D02*
D03*
X188714D02*
D03*
X207477Y-36830D02*
D03*
X199603D02*
D03*
D16*
X251329Y-7493D02*
D03*
Y-15367D02*
D03*
D17*
X170118Y-24764D02*
D03*
D18*
X176417Y-21614D02*
D03*
Y-27913D02*
D03*
X163819D02*
D03*
Y-21614D02*
D03*
D19*
X176024Y-23189D02*
D03*
Y-24764D02*
D03*
Y-26339D02*
D03*
X164213D02*
D03*
Y-24764D02*
D03*
Y-23189D02*
D03*
D20*
X173268Y-31063D02*
D03*
X166969D02*
D03*
Y-18465D02*
D03*
X173268D02*
D03*
D21*
X171693Y-30669D02*
D03*
X170118D02*
D03*
X168543D02*
D03*
Y-18858D02*
D03*
X170118D02*
D03*
X171693D02*
D03*
D22*
X176674Y-38010D02*
D03*
X176250Y-4250D02*
D03*
X184434Y-38010D02*
D03*
X191665Y-4250D02*
D03*
X183958D02*
D03*
X168543D02*
D03*
X160835D02*
D03*
D23*
X47269Y-28364D02*
D03*
Y-72656D02*
D03*
D24*
X37230Y-43325D02*
D03*
Y-38404D02*
D03*
Y-48246D02*
D03*
Y-53167D02*
D03*
Y-58089D02*
D03*
Y-63010D02*
D03*
D25*
X63297Y-33421D02*
D03*
Y-25153D02*
D03*
D26*
X95417Y-28192D02*
D03*
X276014Y-11678D02*
D03*
X360040Y-35588D02*
D03*
D27*
X87417Y-24392D02*
D03*
Y-31892D02*
D03*
X268014Y-7878D02*
D03*
Y-15378D02*
D03*
X352040Y-31788D02*
D03*
Y-39288D02*
D03*
D28*
X117308Y-30483D02*
D03*
D29*
X121108Y-22483D02*
D03*
X113608D02*
D03*
D30*
X218701Y-19606D02*
D03*
D31*
X229951Y-27106D02*
D03*
Y-22106D02*
D03*
Y-17106D02*
D03*
Y-12106D02*
D03*
X207451D02*
D03*
Y-17106D02*
D03*
Y-22106D02*
D03*
Y-27106D02*
D03*
D32*
X301361Y-32337D02*
D03*
Y-34896D02*
D03*
Y-37455D02*
D03*
X323999Y-32337D02*
D03*
Y-34896D02*
D03*
Y-37455D02*
D03*
X301361Y-40014D02*
D03*
X323999D02*
D03*
D33*
X245984Y-30315D02*
Y-18032D01*
X239469Y-36830D02*
X245984Y-30315D01*
X240059Y-12106D02*
X245984Y-18032D01*
X229951Y-12106D02*
X240059D01*
X276026Y-33002D02*
Y-24570D01*
X322795Y-36299D02*
X323999D01*
X328115Y-17879D02*
X331290Y-21054D01*
Y-21116D02*
Y-21054D01*
Y-21116D02*
X331457Y-21283D01*
X276014Y-24558D02*
Y-11678D01*
X267261Y-33014D02*
X276013D01*
X189562Y-27132D02*
X189588Y-27106D01*
X248753Y-15367D02*
X251329D01*
X336368Y-38366D02*
X344724D01*
X207451Y-36804D02*
Y-27106D01*
X189588D02*
X207451D01*
X207477Y-36830D02*
X239469D01*
X336368Y-61725D02*
Y-38366D01*
Y-61725D02*
X340631Y-65988D01*
X319950Y-17879D02*
Y-6610D01*
Y-17879D02*
X328115D01*
X349968Y-46110D02*
X353658D01*
X267992Y-19961D02*
Y-15400D01*
X251340Y-15378D02*
X268014D01*
X323999Y-36299D02*
X326575D01*
X331457Y-31417D01*
Y-21283D01*
X332580Y-38366D02*
X336368D01*
X331044Y-36830D02*
X332580Y-38366D01*
X95417Y-28192D02*
X101122D01*
X103640Y-30710D01*
X108741D01*
X276014Y-11678D02*
X276024Y-11669D01*
Y-6890D01*
X307159Y-3819D02*
X309950Y-6610D01*
X279095Y-3819D02*
X307159D01*
X276024Y-6890D02*
X279095Y-3819D01*
X251850Y-26718D02*
Y-24528D01*
X251868Y-26732D02*
X267244D01*
X236516Y-3130D02*
X248753Y-15367D01*
X145416Y-18290D02*
X149603D01*
X196653Y-12114D02*
Y-6890D01*
X160835Y-4250D02*
X165556Y-8971D01*
X160143Y-3558D02*
X160835Y-4250D01*
D34*
X143776Y-27799D02*
X145805Y-25770D01*
X143776Y-32980D02*
Y-27799D01*
X137477Y-32980D02*
Y-25849D01*
X129045Y-25770D02*
X137399D01*
X63297Y-14443D02*
X70510Y-7230D01*
X63297Y-25153D02*
Y-14443D01*
X80454Y-7286D02*
X80510Y-7230D01*
X121108Y-22483D02*
Y-14749D01*
X121025Y-14665D02*
X121108Y-14749D01*
X113055Y-14665D02*
X121025D01*
X283073Y-33071D02*
Y-24610D01*
X344180Y-90860D02*
X351919D01*
X360040Y-46027D02*
Y-35588D01*
X344724Y-32067D02*
X351762D01*
X300534Y-24556D02*
X303504Y-21586D01*
X307522D01*
X301361Y-40014D02*
X323999D01*
X307522Y-17845D02*
X311271D01*
X323958Y-21586D02*
X326944Y-24572D01*
X319727Y-21586D02*
X323958D01*
X37230Y-63010D02*
X40573D01*
X37230Y-53167D02*
X43840D01*
X37230Y-58089D02*
X42226D01*
X31636Y-53167D02*
X37230D01*
X29077Y-58089D02*
X37230D01*
X31833Y-63010D02*
X37230D01*
X30022Y-38404D02*
X37230D01*
X43840Y-53167D02*
X58268Y-38740D01*
X42226Y-58089D02*
X59921Y-40394D01*
X40573Y-63010D02*
X61378Y-42205D01*
X168547Y-18858D02*
Y-4254D01*
X168543Y-4250D02*
X168547Y-4254D01*
X183958Y-22128D02*
Y-4250D01*
X198455Y-22106D02*
X207451D01*
X197182Y-20833D02*
X198455Y-22106D01*
X163819Y-32208D02*
Y-27913D01*
X351953Y-97193D02*
X355433Y-93713D01*
X37230Y-38404D02*
X38980Y-36654D01*
X159006Y-21614D02*
X163819D01*
X157759Y-26339D02*
X164213D01*
X80454Y-31961D02*
Y-7286D01*
Y-31961D02*
X87417D01*
X315838Y-21586D02*
X319727D01*
X313504Y-27559D02*
Y-20079D01*
X311271Y-17845D02*
X313504Y-20079D01*
X145805Y-25770D02*
X149603D01*
X240726Y-22028D02*
X240749Y-22005D01*
X189562Y-20833D02*
Y-17126D01*
X189581Y-17106D02*
X207451D01*
X229951Y-22106D02*
X240169D01*
X355866Y-93280D02*
Y-83465D01*
X351953Y-97193D02*
X355866Y-93280D01*
X339528Y-42480D02*
X356328D01*
X359958Y-46110D01*
X307522Y-29604D02*
Y-25326D01*
X304789Y-32337D02*
X307522Y-29604D01*
X301361Y-32337D02*
X304789D01*
X318282D02*
X323999D01*
X313504Y-27559D02*
X318282Y-32337D01*
X87417Y-24452D02*
X108704D01*
X114735Y-30483D01*
X117308D01*
X58268Y-38740D02*
X161024D01*
X166972Y-32792D01*
X166969Y-32838D02*
Y-31063D01*
X59921Y-40394D02*
X161575D01*
X168547Y-33422D01*
X168543D02*
Y-30669D01*
X61378Y-42205D02*
X162284D01*
X170122Y-34367D01*
Y-30669D01*
X134077Y-18290D02*
X137399D01*
X121105Y-8446D02*
X144155D01*
X155669Y-19961D01*
X156296Y-27133D02*
X157090Y-26339D01*
X164213D01*
X170118Y-24764D02*
Y-18858D01*
X159846Y-36654D02*
X161493Y-35007D01*
X38980Y-36654D02*
X159846D01*
X181968Y-20551D02*
X182165D01*
X176024Y-24764D02*
X181322D01*
X183958Y-22128D01*
X176417Y-21614D02*
X177284D01*
X181811Y-17087D01*
X176024Y-23189D02*
X179330D01*
X181968Y-20551D01*
X176417Y-27913D02*
X181614D01*
X185000Y-24528D01*
X171693Y-18858D02*
Y-16457D01*
X173071Y-15079D01*
X186378Y-11417D02*
X187951D01*
X188714Y-12180D01*
X170118Y-18858D02*
Y-12284D01*
X170984Y-11417D01*
X165556Y-8971D02*
X166969Y-10384D01*
Y-18465D02*
Y-10384D01*
X149603Y-25770D02*
X150610Y-24764D01*
X164213D01*
X146811Y-4961D02*
X150974D01*
X161965Y-15951D01*
X176299Y-13465D02*
Y-4299D01*
X171696Y-36811D02*
Y-30669D01*
X173268Y-18465D02*
X176929D01*
X178661Y-16732D01*
D35*
X196662Y-12106D02*
X207451D01*
D36*
X323999Y-36654D02*
Y-36299D01*
Y-35748D01*
D37*
X224783Y-17165D02*
D03*
D38*
X367403Y-68744D02*
D03*
X349687D02*
D03*
D39*
X319950Y-6610D02*
D03*
X80510Y-7230D02*
D03*
D40*
X309950Y-6610D02*
D03*
X70510Y-7230D02*
D03*
D41*
X31636Y-53167D02*
D03*
X29077Y-58089D02*
D03*
X31833Y-63010D02*
D03*
X30022Y-38404D02*
D03*
X178661Y-16732D02*
D03*
X181811Y-17087D02*
D03*
X176674Y-38010D02*
D03*
X184370Y-38228D02*
D03*
X163819Y-32208D02*
D03*
X173071Y-15079D02*
D03*
X171696Y-36811D02*
D03*
X159006Y-21614D02*
D03*
X161493Y-35007D02*
D03*
X315838Y-21586D02*
D03*
X176299Y-13465D02*
D03*
X189562Y-17126D02*
D03*
X355866Y-83465D02*
D03*
X339528Y-42480D02*
D03*
X349968Y-46110D02*
D03*
X168776Y-23471D02*
D03*
Y-26030D02*
D03*
X171414D02*
D03*
Y-23511D02*
D03*
X216850Y-15512D02*
D03*
Y-18543D02*
D03*
X220945Y-15512D02*
D03*
X216850Y-21575D02*
D03*
X146811Y-4961D02*
D03*
X134077Y-18290D02*
D03*
X30197Y-45748D02*
D03*
X43425Y-45197D02*
D03*
X220945Y-18543D02*
D03*
Y-21575D02*
D03*
X155669Y-19961D02*
D03*
X156296Y-27133D02*
D03*
X161965Y-15951D02*
D03*
X256378Y-3032D02*
D03*
X351181Y-54213D02*
D03*
X255906Y-31772D02*
D03*
X250827Y-31653D02*
D03*
X233583Y-31378D02*
D03*
X181968Y-20551D02*
D03*
X170984Y-11417D02*
D03*
X186378D02*
D03*
X267835Y-3110D02*
D03*
X268307Y-10630D02*
D03*
X255591Y-10905D02*
D03*
X290945Y-24370D02*
D03*
X354921Y-39173D02*
D03*
X338150Y-82402D02*
D03*
X31417Y-31339D02*
D03*
X339016Y-95000D02*
D03*
X24449Y-18898D02*
D03*
X110000Y-20945D02*
D03*
X31417Y-72913D02*
D03*
X68583Y-32205D02*
D03*
X86457Y-19764D02*
D03*
X72165Y-17362D02*
D03*
X56811Y-32008D02*
D03*
X57047Y-59252D02*
D03*
X126772Y-15551D02*
D03*
X132992Y-4567D02*
D03*
X88150Y-7520D02*
D03*
X108583Y-6260D02*
D03*
D42*
X267992Y-19961D02*
D03*
X239469Y-36830D02*
D03*
X331044D02*
D03*
X108741Y-30710D02*
D03*
X236575Y-3071D02*
D03*
X276024Y-6890D02*
D03*
X251850Y-24528D02*
D03*
X185000D02*
D03*
X145416Y-18290D02*
D03*
X160143Y-3558D02*
D03*
X196653Y-6890D02*
D03*
M02*
